<?xml version="1.0" encoding="utf-8"?>
<svg version="1.1" id="Layer_1" xmlns="http://www.w3.org/2000/svg" xmlns:xlink="http://www.w3.org/1999/xlink" x="0px" y="0px"
	 viewBox="0 0 660 400" enable-background="new 0 0 660 400" xml:space="preserve">
<g>
	<g>
		<g>
			<line fill="none" stroke="#000000" stroke-miterlimit="10" x1="330" y1="54.2" x2="330" y2="221.7"/>
			<g>
				<polygon points="325,55.6 330,47 335,55.6"/>
			</g>
		</g>
		<line fill-rule="evenodd" clip-rule="evenodd" fill="#FFFFFF" x1="330" y1="47" x2="330" y2="221.7"/>
	</g>
	<g>
		<g>
			<line fill="none" stroke="#000000" stroke-miterlimit="10" x1="475.1" y1="305.4" x2="330" y2="221.7"/>
			<g>
				<polygon points="476.3,300.4 481.3,309 471.3,309"/>
			</g>
		</g>
		<line fill-rule="evenodd" clip-rule="evenodd" fill="#FFFFFF" x1="481.3" y1="309" x2="330" y2="221.7"/>
	</g>
	<g>
		<g>
			<line fill="none" stroke="#000000" stroke-miterlimit="10" x1="184.9" y1="305.4" x2="330" y2="221.7"/>
			<g>
				<polygon points="188.7,309 178.7,309 183.7,300.4"/>
			</g>
		</g>
		<line fill-rule="evenodd" clip-rule="evenodd" fill="#FFFFFF" x1="178.7" y1="309" x2="330" y2="221.7"/>
	</g>
</g>
<polygon opacity="0.1" fill-rule="evenodd" clip-rule="evenodd" fill="#0000FF" points="429.6,279.2 330,336.7 230.4,279.2 
	330,221.7 "/>
<g>
	<path d="M316.2,283.4l1.2-0.7l-2.1-1.2l1.6-0.9l2.1,1.2l1.4-0.8l1.2,0.7l-1.4,0.8l3.8,2.2c0.2,0.1,0.3,0.2,0.4,0.2
		c0.1,0.1,0.3,0.1,0.4,0.1c0.1,0,0.3,0,0.4,0c0.1,0,0.3-0.1,0.5-0.2c0.1-0.1,0.2-0.1,0.3-0.2c0.1-0.1,0.2-0.1,0.3-0.2l1.2,0.7
		c-0.2,0.1-0.3,0.2-0.5,0.3c-0.1,0.1-0.3,0.2-0.5,0.3c-0.4,0.2-0.8,0.4-1.1,0.5c-0.3,0.1-0.6,0.1-0.9,0.1c-0.3,0-0.6-0.1-0.9-0.2
		c-0.3-0.1-0.6-0.2-0.9-0.4l-4.2-2.4l-1.2,0.7L316.2,283.4z"/>
	<path d="M332.2,282.7c-0.6,0.3-1.2,0.6-1.8,0.7c-0.6,0.1-1.3,0.2-1.9,0.2c-0.6,0-1.3-0.1-1.9-0.3c-0.6-0.2-1.2-0.4-1.8-0.7
		c-0.5-0.3-1-0.7-1.3-1c-0.3-0.4-0.5-0.7-0.5-1.1c0-0.4,0.1-0.7,0.4-1.1c0.3-0.4,0.7-0.7,1.2-1c0.6-0.3,1.2-0.6,1.8-0.7
		c0.6-0.1,1.3-0.2,1.9-0.2c0.6,0,1.3,0.1,1.9,0.3c0.6,0.2,1.2,0.4,1.8,0.7c0.6,0.3,1,0.7,1.3,1c0.3,0.4,0.5,0.7,0.5,1.1
		c0,0.4-0.1,0.7-0.4,1.1C333.2,282,332.8,282.3,332.2,282.7z M331,281.9c0.4-0.2,0.6-0.4,0.7-0.7c0.1-0.2,0.1-0.5,0.1-0.7
		s-0.2-0.5-0.4-0.7c-0.2-0.2-0.5-0.4-0.8-0.6c-0.3-0.2-0.6-0.3-1-0.5c-0.4-0.1-0.8-0.2-1.2-0.3c-0.4,0-0.8,0-1.2,0
		c-0.4,0.1-0.8,0.2-1.1,0.4s-0.6,0.4-0.7,0.7c-0.1,0.2-0.1,0.5-0.1,0.7c0.1,0.2,0.2,0.5,0.4,0.7c0.2,0.2,0.5,0.4,0.8,0.6
		c0.3,0.2,0.7,0.3,1,0.5c0.4,0.1,0.8,0.2,1.2,0.3c0.4,0,0.8,0,1.2,0C330.2,282.3,330.6,282.1,331,281.9z"/>
	<path d="M329.8,275.5l1.5-0.9l1,0.6l0,0c-0.2-0.4-0.2-0.7,0-1.1s0.6-0.6,1-0.9c0.6-0.3,1.2-0.6,1.8-0.7s1.2-0.2,1.9-0.1
		c0.6,0,1.2,0.2,1.8,0.3c0.6,0.2,1.2,0.4,1.7,0.7c0.5,0.3,0.9,0.6,1.2,0.9c0.3,0.3,0.5,0.7,0.6,1c0.1,0.3,0,0.7-0.1,1
		c-0.2,0.3-0.5,0.7-1.1,1c-0.2,0.1-0.5,0.3-0.8,0.4c-0.3,0.1-0.6,0.2-0.9,0.3c-0.3,0.1-0.6,0.1-0.9,0.1s-0.6,0-1,0l0,0l3.6,2.1
		l-1.6,0.9L329.8,275.5z M338.9,274.4c-0.3-0.2-0.7-0.3-1.1-0.5c-0.4-0.1-0.8-0.2-1.2-0.3c-0.4,0-0.8,0-1.2,0
		c-0.4,0.1-0.8,0.2-1.1,0.4c-0.7,0.4-0.9,0.8-0.8,1.3c0.1,0.5,0.6,0.9,1.3,1.4c0.4,0.2,0.7,0.4,1.1,0.5s0.8,0.2,1.2,0.2
		c0.4,0,0.8,0,1.2-0.1c0.4-0.1,0.7-0.2,1-0.4c0.4-0.2,0.6-0.4,0.7-0.7c0.1-0.2,0.1-0.5,0-0.7c-0.1-0.2-0.2-0.5-0.5-0.7
		C339.5,274.8,339.3,274.6,338.9,274.4z"/>
</g>
<polygon opacity="0.1" fill-rule="evenodd" clip-rule="evenodd" fill="#00FF00" points="330,221.7 230.4,279.2 230.4,164.2 
	330,106.7 "/>
<g>
	<path d="M265.4,197.7l1.2-0.7v-0.7c0-0.5,0.1-1,0.2-1.4c0.1-0.4,0.3-0.7,0.4-1c0.2-0.3,0.4-0.5,0.6-0.7c0.2-0.2,0.5-0.4,0.7-0.5
		c0.5-0.3,0.9-0.5,1.1-0.5v1.4c-0.1,0-0.2,0.1-0.3,0.1c-0.1,0.1-0.3,0.1-0.4,0.2c-0.2,0.1-0.4,0.3-0.5,0.5s-0.2,0.5-0.2,0.8v0.8
		l1.3-0.8v1.4l-1.3,0.8v6.9l-1.6,0.9v-6.9l-1.2,0.7V197.7z"/>
	<path d="M270.5,194.8l1.5-0.9v1.6l0,0c0-0.3,0.1-0.5,0.3-0.8c0.1-0.3,0.3-0.6,0.5-0.9c0.2-0.3,0.4-0.5,0.6-0.8
		c0.2-0.2,0.5-0.4,0.7-0.6c0.2-0.1,0.3-0.2,0.4-0.2c0.1,0,0.1-0.1,0.2-0.1v1.8c-0.1,0-0.2,0.1-0.3,0.1c-0.1,0.1-0.2,0.1-0.3,0.2
		c-0.3,0.2-0.5,0.4-0.8,0.6c-0.2,0.3-0.4,0.6-0.6,0.9c-0.2,0.3-0.3,0.7-0.4,1.1c-0.1,0.4-0.2,0.8-0.2,1.3v3.9l-1.6,0.9V194.8z"/>
	<path d="M278.4,198.7c-0.6,0.3-1.1,0.5-1.5,0.6c-0.4,0-0.8,0-1.1-0.2c-0.3-0.2-0.5-0.5-0.7-1c-0.2-0.4-0.2-1-0.2-1.6
		c0-0.6,0.1-1.3,0.2-1.9c0.2-0.6,0.4-1.2,0.7-1.8s0.7-1.1,1.1-1.6c0.4-0.5,1-0.9,1.5-1.2c0.6-0.3,1.1-0.5,1.5-0.6
		c0.4,0,0.8,0,1.1,0.2s0.5,0.5,0.7,1c0.2,0.4,0.2,1,0.2,1.6c0,0.6-0.1,1.3-0.2,1.9c-0.2,0.6-0.4,1.2-0.7,1.8
		c-0.3,0.6-0.7,1.1-1.1,1.6C279.5,198,279,198.4,278.4,198.7z M278.4,197.3c0.4-0.2,0.7-0.5,0.9-0.8c0.3-0.3,0.5-0.7,0.6-1
		c0.2-0.4,0.3-0.8,0.4-1.1c0.1-0.4,0.1-0.8,0.1-1.1c0-0.4,0-0.7-0.1-1c-0.1-0.3-0.2-0.5-0.4-0.7c-0.2-0.2-0.4-0.3-0.6-0.3
		c-0.3,0-0.6,0.1-0.9,0.3s-0.7,0.5-0.9,0.8c-0.3,0.3-0.5,0.7-0.6,1c-0.2,0.4-0.3,0.8-0.4,1.1c-0.1,0.4-0.1,0.8-0.1,1.1
		c0,0.4,0,0.7,0.1,1c0.1,0.3,0.2,0.5,0.4,0.7c0.2,0.2,0.4,0.3,0.6,0.3C277.8,197.6,278.1,197.5,278.4,197.3z"/>
	<path d="M283.4,187.4l1.5-0.9v1.2l0,0c0.2-0.6,0.6-1.1,0.9-1.6c0.4-0.5,0.8-0.9,1.3-1.1c0.8-0.5,1.4-0.6,1.9-0.4
		c0.5,0.2,0.7,0.8,0.7,1.7v5.7l-1.6,0.9v-5.2c0-0.6-0.1-1-0.4-1.2c-0.2-0.2-0.6-0.1-1,0.2c-0.3,0.2-0.5,0.4-0.7,0.6
		c-0.2,0.2-0.4,0.5-0.5,0.8c-0.1,0.3-0.3,0.6-0.3,0.9c-0.1,0.3-0.1,0.6-0.1,0.9v4.9l-1.6,0.9V187.4z"/>
	<path d="M290.6,183.2l1.2-0.7V180l1.6-0.9v2.5l1.4-0.8v1.4l-1.4,0.8v4.4c0,0.2,0,0.4,0,0.5c0,0.1,0,0.2,0.1,0.3
		c0.1,0.1,0.1,0.1,0.2,0.1c0.1,0,0.2-0.1,0.4-0.2c0.1-0.1,0.2-0.1,0.3-0.2c0.1-0.1,0.2-0.2,0.3-0.2v1.4c-0.2,0.1-0.3,0.2-0.5,0.4
		c-0.2,0.1-0.3,0.2-0.5,0.3c-0.4,0.2-0.8,0.4-1,0.4c-0.3,0.1-0.5,0-0.6-0.1c-0.1-0.1-0.2-0.3-0.3-0.5c-0.1-0.2-0.1-0.5-0.1-0.9v-4.9
		l-1.2,0.7V183.2z"/>
</g>
<polygon opacity="0.1" fill-rule="evenodd" clip-rule="evenodd" fill="#FF0000" points="429.6,279.2 330,221.7 330,106.7 
	429.6,164.2 "/>
<g>
	<path d="M368.5,188.3c0,0.6,0.2,1,0.5,1.4c0.3,0.4,0.7,0.7,1.1,1c0.1,0.1,0.3,0.2,0.5,0.3c0.2,0.1,0.4,0.1,0.5,0.2
		c0.2,0,0.3,0,0.4-0.1s0.2-0.2,0.1-0.5s-0.1-0.5-0.2-0.7c-0.1-0.2-0.3-0.5-0.5-0.7c-0.2-0.2-0.5-0.4-0.7-0.7
		c-0.3-0.2-0.6-0.5-0.8-0.7c-0.3-0.2-0.6-0.5-0.9-0.8c-0.3-0.3-0.5-0.5-0.7-0.9c-0.2-0.3-0.4-0.6-0.5-1c-0.1-0.4-0.2-0.7-0.2-1.2
		c0-0.4,0.1-0.8,0.3-1c0.2-0.2,0.4-0.3,0.7-0.3c0.3,0,0.6,0,1,0.2c0.4,0.1,0.7,0.3,1,0.5c0.4,0.2,0.7,0.5,1.1,0.7
		c0.3,0.3,0.6,0.6,0.9,1c0.3,0.4,0.5,0.8,0.7,1.2c0.2,0.4,0.3,0.9,0.3,1.4l-1.6-1c-0.1-0.5-0.2-0.9-0.5-1.2
		c-0.3-0.3-0.6-0.6-0.9-0.8c-0.1-0.1-0.2-0.1-0.4-0.2c-0.2-0.1-0.3-0.1-0.4-0.1c-0.1,0-0.2,0-0.3,0.1c-0.1,0.1-0.1,0.2-0.1,0.4
		c0,0.2,0.1,0.4,0.2,0.7c0.1,0.2,0.3,0.4,0.5,0.6c0.2,0.2,0.5,0.4,0.7,0.7c0.3,0.2,0.6,0.5,0.9,0.7c0.3,0.2,0.6,0.5,0.8,0.8
		c0.3,0.3,0.5,0.6,0.7,0.9c0.2,0.3,0.4,0.6,0.5,1c0.1,0.4,0.2,0.7,0.2,1.1c0,0.5-0.1,0.9-0.3,1.1c-0.2,0.2-0.4,0.4-0.8,0.4
		c-0.3,0-0.7,0-1-0.1c-0.4-0.1-0.8-0.3-1.1-0.5c-0.5-0.3-0.9-0.6-1.3-0.9c-0.4-0.3-0.7-0.7-1-1.1s-0.5-0.8-0.7-1.3s-0.2-0.9-0.3-1.4
		L368.5,188.3z"/>
	<path d="M374.5,183l1.6,0.9v1.7l-1.6-0.9V183z M374.5,186.2l1.6,0.9v8.3l-1.6-0.9V186.2z"/>
	<path d="M384.6,200.2l-1.5-0.9v-1.1l0,0c-0.2,0.4-0.5,0.5-0.9,0.5c-0.4,0-0.8-0.2-1.3-0.4c-0.6-0.3-1.1-0.7-1.5-1.2
		c-0.4-0.5-0.8-1-1-1.5c-0.3-0.6-0.5-1.1-0.6-1.8c-0.1-0.6-0.2-1.2-0.2-1.9c0-0.7,0.1-1.3,0.3-1.8c0.2-0.4,0.4-0.8,0.7-0.9
		c0.3-0.2,0.6-0.3,1-0.2c0.4,0,0.8,0.2,1.1,0.4c0.2,0.1,0.4,0.3,0.7,0.5c0.2,0.2,0.5,0.4,0.7,0.6c0.2,0.2,0.4,0.5,0.6,0.7
		c0.2,0.3,0.3,0.6,0.5,0.8l0,0v-4.2l1.6,0.9V200.2z M379,193c0,0.4,0,0.7,0.1,1.1c0.1,0.4,0.2,0.8,0.4,1.1s0.4,0.7,0.6,1
		c0.2,0.3,0.5,0.6,0.9,0.8c0.4,0.2,0.7,0.3,0.9,0.3c0.3,0,0.5-0.1,0.6-0.3c0.2-0.2,0.3-0.4,0.4-0.7c0.1-0.3,0.1-0.6,0.1-1
		c0-0.9-0.2-1.7-0.5-2.5c-0.4-0.7-0.8-1.3-1.4-1.6c-0.4-0.2-0.7-0.3-0.9-0.3c-0.3,0-0.5,0.1-0.6,0.3c-0.2,0.2-0.3,0.4-0.3,0.8
		C379.1,192.3,379,192.6,379,193z"/>
	<path d="M387.5,198.3c0,0.3,0,0.7,0.1,1c0.1,0.3,0.2,0.7,0.4,1c0.2,0.3,0.4,0.6,0.6,0.9c0.2,0.3,0.5,0.5,0.9,0.7
		c0.5,0.3,0.8,0.4,1.1,0.3c0.3-0.1,0.5-0.3,0.6-0.7l1.5,0.9c-0.1,0.4-0.2,0.7-0.4,1c-0.2,0.2-0.4,0.4-0.7,0.5c-0.3,0.1-0.6,0.1-1,0
		c-0.4-0.1-0.7-0.2-1.1-0.5c-0.6-0.3-1.1-0.7-1.5-1.2c-0.4-0.5-0.8-1-1.1-1.5c-0.3-0.6-0.5-1.1-0.7-1.8c-0.2-0.6-0.2-1.3-0.2-1.9
		c0-0.6,0.1-1.1,0.2-1.5c0.2-0.4,0.4-0.8,0.7-1s0.7-0.3,1.1-0.3c0.4,0,0.9,0.2,1.4,0.5c0.6,0.3,1.1,0.8,1.5,1.3
		c0.4,0.5,0.8,1.1,1.1,1.7c0.3,0.6,0.5,1.3,0.6,1.9c0.1,0.7,0.2,1.3,0.1,1.9L387.5,198.3z M391.2,199.2c0-0.3-0.1-0.6-0.2-0.9
		s-0.2-0.6-0.4-0.9s-0.3-0.6-0.6-0.8c-0.2-0.2-0.5-0.4-0.7-0.6c-0.3-0.2-0.5-0.2-0.8-0.3c-0.2,0-0.4,0-0.6,0.1
		c-0.2,0.1-0.3,0.3-0.4,0.5c-0.1,0.2-0.2,0.5-0.2,0.8L391.2,199.2z"/>
</g>
<g>
	<path d="M441.7,270.2l1.5,0.9v1.6l0,0c0-0.2,0.1-0.4,0.3-0.5c0.1-0.1,0.3-0.2,0.5-0.3c0.2-0.1,0.4-0.1,0.6-0.1
		c0.2,0,0.5,0.1,0.7,0.2c0.2,0.1,0.3,0.2,0.4,0.2c0.1,0.1,0.1,0.1,0.2,0.2v1.8c-0.1-0.1-0.2-0.2-0.3-0.3c-0.1-0.1-0.2-0.2-0.3-0.2
		c-0.3-0.2-0.5-0.2-0.8-0.3c-0.2,0-0.4,0-0.6,0.2c-0.2,0.1-0.3,0.4-0.4,0.6s-0.2,0.7-0.2,1.1v3.9l-1.6-0.9V270.2z"/>
	<path d="M446.6,269.9l1.6,0.9v1.7l-1.6-0.9V269.9z M446.6,273.1l1.6,0.9v8.3l-1.6-0.9V273.1z"/>
	<path d="M456.5,286.7c0,1.2-0.3,2-0.9,2.3c-0.6,0.3-1.5,0.1-2.6-0.6c-0.4-0.2-0.7-0.5-1.1-0.8c-0.4-0.3-0.7-0.6-1-1
		c-0.3-0.4-0.6-0.8-0.8-1.2c-0.2-0.4-0.3-0.9-0.4-1.4l1.6,0.9c0,0.3,0.1,0.5,0.2,0.8c0.1,0.2,0.2,0.4,0.4,0.6
		c0.2,0.2,0.3,0.3,0.5,0.5c0.2,0.1,0.4,0.3,0.6,0.4c0.6,0.4,1.1,0.5,1.4,0.3c0.3-0.2,0.4-0.6,0.4-1.3v-1.3l0,0
		c-0.2,0.3-0.5,0.5-0.9,0.5c-0.4,0-0.8-0.1-1.2-0.3c-0.6-0.3-1.1-0.7-1.5-1.2c-0.4-0.5-0.7-1-1-1.5c-0.3-0.6-0.5-1.1-0.6-1.7
		c-0.1-0.6-0.2-1.2-0.2-1.8c0-0.6,0.1-1,0.2-1.5c0.1-0.4,0.4-0.7,0.6-1c0.3-0.2,0.6-0.3,1-0.3c0.4,0,0.9,0.2,1.4,0.5
		c0.5,0.3,0.9,0.6,1.2,1c0.4,0.4,0.7,0.9,0.9,1.5l0,0v-1.1l1.6,0.9V286.7z M453,283.6c0.4,0.2,0.6,0.3,0.9,0.3s0.4-0.1,0.6-0.3
		c0.2-0.2,0.3-0.4,0.3-0.7c0.1-0.3,0.1-0.6,0.1-1s0-0.7-0.1-1.1c-0.1-0.4-0.2-0.7-0.3-1.1c-0.2-0.3-0.4-0.7-0.6-1
		c-0.2-0.3-0.5-0.5-0.9-0.7c-0.4-0.2-0.6-0.3-0.9-0.3c-0.2,0-0.4,0.1-0.6,0.3c-0.1,0.2-0.3,0.4-0.3,0.7c-0.1,0.3-0.1,0.6-0.1,1
		c0,0.3,0,0.7,0.1,1.1c0.1,0.4,0.2,0.7,0.3,1.1c0.2,0.3,0.3,0.7,0.6,1C452.4,283.2,452.7,283.4,453,283.6z"/>
	<path d="M458.1,276.6l1.6,0.9v4.2l0,0c0.2-0.3,0.5-0.4,0.9-0.4c0.4,0,0.8,0.1,1.3,0.4c0.8,0.5,1.4,1,1.9,1.8
		c0.5,0.7,0.7,1.6,0.7,2.5v5.7l-1.6-0.9v-5.2c0-0.7-0.1-1.2-0.4-1.6c-0.2-0.4-0.6-0.8-1-1c-0.3-0.2-0.5-0.2-0.7-0.2
		c-0.2,0-0.4,0-0.5,0.2c-0.1,0.1-0.3,0.3-0.3,0.5c-0.1,0.2-0.1,0.5-0.1,0.8v4.9l-1.6-0.9V276.6z"/>
	<path d="M465.4,283.9l1.2,0.7v-2.5l1.6,0.9v2.5l1.4,0.8v1.4l-1.4-0.8v4.4c0,0.2,0,0.4,0,0.5c0,0.1,0,0.3,0.1,0.4
		c0.1,0.1,0.1,0.2,0.2,0.3c0.1,0.1,0.2,0.2,0.4,0.3c0.1,0.1,0.2,0.1,0.3,0.2c0.1,0.1,0.2,0.1,0.3,0.1v1.4c-0.2-0.1-0.3-0.2-0.5-0.2
		c-0.2-0.1-0.3-0.2-0.5-0.3c-0.4-0.2-0.8-0.5-1-0.7c-0.3-0.2-0.5-0.5-0.6-0.7c-0.1-0.3-0.2-0.5-0.3-0.8c-0.1-0.3-0.1-0.6-0.1-1V286
		l-1.2-0.7V283.9z"/>
</g>
<g>
	<path d="M196,279.6l1.6-0.9v11.4L196,291V279.6z"/>
	<path d="M200.6,284.7c0,0.3,0,0.6,0.1,0.9c0.1,0.3,0.2,0.4,0.4,0.6c0.2,0.1,0.4,0.2,0.6,0.2c0.2,0,0.5-0.1,0.9-0.3
		c0.5-0.3,0.8-0.6,1.1-1c0.3-0.4,0.5-0.9,0.6-1.4l1.5-0.9c-0.1,0.5-0.2,1-0.4,1.4c-0.2,0.5-0.4,0.9-0.7,1.3c-0.3,0.4-0.6,0.8-1,1.1
		c-0.4,0.3-0.7,0.6-1.1,0.8c-0.6,0.3-1.1,0.5-1.5,0.5c-0.4,0-0.8,0-1.1-0.3c-0.3-0.2-0.5-0.5-0.7-1c-0.2-0.4-0.2-1-0.2-1.6
		c0-0.6,0.1-1.2,0.2-1.8c0.2-0.6,0.4-1.2,0.7-1.8s0.7-1.1,1.1-1.6c0.4-0.5,0.9-0.9,1.4-1.2c0.6-0.3,1.1-0.5,1.5-0.5
		c0.4,0,0.8,0.2,1.1,0.4c0.3,0.3,0.5,0.7,0.6,1.2c0.1,0.5,0.2,1.1,0.1,1.7L200.6,284.7z M204.3,281.4c0-0.3-0.1-0.5-0.2-0.7
		s-0.2-0.4-0.4-0.5c-0.2-0.1-0.3-0.2-0.6-0.2c-0.2,0-0.5,0.1-0.7,0.2c-0.3,0.2-0.5,0.4-0.8,0.6c-0.2,0.2-0.4,0.5-0.6,0.8
		c-0.2,0.3-0.3,0.6-0.4,0.9c-0.1,0.3-0.2,0.6-0.2,1L204.3,281.4z"/>
	<path d="M206.3,276.8l1.2-0.7v-0.7c0-0.5,0.1-1,0.2-1.4s0.3-0.7,0.4-1c0.2-0.3,0.4-0.5,0.6-0.7c0.2-0.2,0.5-0.4,0.7-0.5
		c0.5-0.3,0.9-0.5,1.1-0.5v1.4c-0.1,0-0.2,0.1-0.3,0.1c-0.1,0.1-0.3,0.1-0.4,0.2c-0.2,0.1-0.4,0.3-0.5,0.5s-0.2,0.5-0.2,0.8v0.8
		l1.3-0.8v1.4l-1.3,0.8v6.9l-1.6,0.9v-6.9l-1.2,0.7V276.8z"/>
	<path d="M210.7,274.3l1.2-0.7v-2.5l1.6-0.9v2.5l1.4-0.8v1.4l-1.4,0.8v4.4c0,0.2,0,0.4,0,0.5c0,0.1,0,0.2,0.1,0.3
		c0.1,0.1,0.1,0.1,0.2,0.1c0.1,0,0.2-0.1,0.4-0.2c0.1-0.1,0.2-0.1,0.3-0.2c0.1-0.1,0.2-0.2,0.3-0.2v1.4c-0.2,0.1-0.3,0.2-0.5,0.4
		c-0.2,0.1-0.3,0.2-0.5,0.3c-0.4,0.2-0.8,0.4-1,0.4c-0.3,0.1-0.5,0-0.6-0.1c-0.1-0.1-0.2-0.3-0.3-0.5c-0.1-0.2-0.1-0.5-0.1-0.9v-4.9
		l-1.2,0.7V274.3z"/>
</g>
<g>
	<path d="M314,92.3v-1.4h-2.5v-1.8h2.5v-1.6h1.4v1.6h4.4c0.2,0,0.4,0,0.5,0c0.1,0,0.3-0.1,0.4-0.1s0.2-0.1,0.2-0.3
		c0-0.1,0.1-0.3,0.1-0.5c0-0.1,0-0.3,0-0.4c0-0.1,0-0.3-0.1-0.4h1.4c0,0.2,0,0.4,0.1,0.6c0,0.2,0,0.4,0,0.6c0,0.5,0,0.9-0.1,1.2
		c-0.1,0.3-0.2,0.5-0.4,0.7c-0.2,0.2-0.4,0.3-0.7,0.3c-0.3,0.1-0.6,0.1-0.9,0.1h-4.9v1.4H314z"/>
	<path d="M322.5,82.4c0,0.7-0.1,1.3-0.3,1.8c-0.2,0.5-0.5,1-0.9,1.3c-0.4,0.4-0.8,0.6-1.4,0.8c-0.5,0.2-1.1,0.3-1.8,0.3
		c-0.6,0-1.2-0.1-1.7-0.3c-0.5-0.2-1-0.5-1.4-0.8c-0.4-0.4-0.7-0.8-0.9-1.3c-0.2-0.5-0.3-1.1-0.3-1.8s0.1-1.3,0.3-1.8
		c0.2-0.5,0.5-1,0.9-1.3c0.4-0.4,0.8-0.6,1.4-0.8c0.5-0.2,1.1-0.3,1.7-0.3c0.6,0,1.2,0.1,1.8,0.3c0.5,0.2,1,0.5,1.4,0.8
		c0.4,0.4,0.7,0.8,0.9,1.3C322.4,81.1,322.5,81.7,322.5,82.4z M321.1,82.4c0-0.4-0.1-0.8-0.3-1.1c-0.2-0.3-0.4-0.5-0.7-0.7
		s-0.6-0.3-0.9-0.4c-0.3-0.1-0.7-0.1-1.1-0.1c-0.4,0-0.7,0-1.1,0.1c-0.4,0.1-0.7,0.2-0.9,0.4c-0.3,0.2-0.5,0.4-0.7,0.7
		c-0.2,0.3-0.3,0.7-0.3,1.1s0.1,0.8,0.3,1.1c0.2,0.3,0.4,0.5,0.7,0.7c0.3,0.2,0.6,0.3,0.9,0.4c0.4,0.1,0.7,0.1,1.1,0.1
		c0.4,0,0.7,0,1.1-0.1c0.3-0.1,0.7-0.2,0.9-0.4s0.5-0.4,0.7-0.7C321,83.1,321.1,82.8,321.1,82.4z"/>
	<path d="M314,76.6v-1.7h1.1v0c-0.5-0.3-0.8-0.6-1-1.1s-0.3-1-0.3-1.5c0-0.7,0.1-1.2,0.3-1.7s0.5-0.9,0.9-1.2
		c0.4-0.3,0.9-0.6,1.4-0.7c0.5-0.2,1.1-0.2,1.7-0.2c0.6,0,1.1,0.1,1.6,0.2c0.5,0.1,1,0.4,1.4,0.7c0.4,0.3,0.7,0.7,1,1.1
		c0.2,0.4,0.4,1,0.4,1.6c0,0.3,0,0.5-0.1,0.8c0,0.3-0.1,0.5-0.2,0.8c-0.1,0.2-0.2,0.5-0.4,0.7s-0.4,0.4-0.6,0.5v0h4.1v1.8H314z
		 M318.2,70.3c-0.4,0-0.7,0-1.1,0.1c-0.4,0.1-0.7,0.2-0.9,0.4c-0.3,0.2-0.5,0.4-0.7,0.7c-0.2,0.3-0.2,0.6-0.2,1
		c0,0.8,0.3,1.3,0.8,1.7c0.5,0.4,1.2,0.6,2.1,0.6c0.4,0,0.8-0.1,1.2-0.2s0.7-0.3,0.9-0.5c0.3-0.2,0.5-0.4,0.6-0.7
		c0.1-0.3,0.2-0.6,0.2-1c0-0.4-0.1-0.8-0.3-1.1c-0.2-0.3-0.4-0.5-0.7-0.7c-0.3-0.2-0.6-0.3-0.9-0.4S318.5,70.3,318.2,70.3z"/>
</g>
<g>
	<g>
		<polyline fill="none" stroke="#CCCCCC" stroke-miterlimit="10" points="492,381.2 492,383.7 489.5,383.7"/>
		
			<line fill="none" stroke="#CCCCCC" stroke-miterlimit="10" stroke-dasharray="5.0645,5.0645" x1="484.4" y1="383.7" x2="335" y2="383.7"/>
		<polyline fill="none" stroke="#CCCCCC" stroke-miterlimit="10" points="332.5,383.7 330,383.7 330,381.2"/>
		
			<line fill="none" stroke="#CCCCCC" stroke-miterlimit="10" stroke-dasharray="5.0645,5.0645" x1="330" y1="376.1" x2="330" y2="226.7"/>
		<polyline fill="none" stroke="#CCCCCC" stroke-miterlimit="10" points="330,224.2 330,221.7 332.5,221.7"/>
		
			<line fill="none" stroke="#CCCCCC" stroke-miterlimit="10" stroke-dasharray="5.0645,5.0645" x1="337.6" y1="221.7" x2="487" y2="221.7"/>
		<polyline fill="none" stroke="#CCCCCC" stroke-miterlimit="10" points="489.5,221.7 492,221.7 492,224.2"/>
		
			<line fill="none" stroke="#CCCCCC" stroke-miterlimit="10" stroke-dasharray="5.0645,5.0645" x1="492" y1="229.2" x2="492" y2="378.6"/>
	</g>
</g>
<g>
	<path d="M507.9,216.2c-0.1-0.5-0.3-0.9-0.6-1.2c-0.3-0.3-0.8-0.4-1.3-0.4c-0.2,0-0.5,0-0.8,0.1s-0.5,0.2-0.7,0.4s-0.4,0.5-0.6,0.9
		c-0.1,0.4-0.2,0.9-0.2,1.5c0,0.3,0,0.7,0.1,1c0.1,0.3,0.2,0.6,0.4,0.9c0.2,0.3,0.4,0.5,0.7,0.6c0.3,0.2,0.6,0.2,1,0.2
		c0.5,0,1-0.2,1.3-0.5c0.3-0.3,0.6-0.8,0.6-1.4h1.8c-0.2,1.1-0.6,1.9-1.2,2.5s-1.5,0.9-2.6,0.9c-0.7,0-1.2-0.1-1.7-0.3
		c-0.5-0.2-0.9-0.5-1.3-0.9c-0.3-0.4-0.6-0.8-0.8-1.4s-0.3-1.1-0.3-1.7c0-0.6,0.1-1.2,0.3-1.7c0.2-0.5,0.4-1,0.8-1.4
		c0.3-0.4,0.8-0.7,1.3-0.9c0.5-0.2,1.1-0.3,1.8-0.3c0.5,0,0.9,0.1,1.4,0.2c0.4,0.1,0.8,0.3,1.2,0.6s0.6,0.6,0.8,0.9
		c0.2,0.4,0.3,0.8,0.4,1.3H507.9z"/>
	<path d="M515,221.9c-0.7,0-1.3-0.1-1.8-0.3c-0.5-0.2-1-0.5-1.3-0.9s-0.6-0.8-0.8-1.4c-0.2-0.5-0.3-1.1-0.3-1.8
		c0-0.6,0.1-1.2,0.3-1.7c0.2-0.5,0.5-1,0.8-1.4c0.4-0.4,0.8-0.7,1.3-0.9c0.5-0.2,1.1-0.3,1.8-0.3s1.3,0.1,1.8,0.3
		c0.5,0.2,1,0.5,1.3,0.9c0.4,0.4,0.6,0.8,0.8,1.4c0.2,0.5,0.3,1.1,0.3,1.7c0,0.6-0.1,1.2-0.3,1.8c-0.2,0.5-0.5,1-0.8,1.4
		s-0.8,0.7-1.3,0.9C516.2,221.8,515.6,221.9,515,221.9z M515,220.5c0.4,0,0.8-0.1,1.1-0.3s0.5-0.4,0.7-0.7s0.3-0.6,0.4-0.9
		s0.1-0.7,0.1-1.1c0-0.4,0-0.7-0.1-1.1s-0.2-0.7-0.4-0.9c-0.2-0.3-0.4-0.5-0.7-0.7c-0.3-0.2-0.7-0.3-1.1-0.3s-0.8,0.1-1.1,0.3
		c-0.3,0.2-0.5,0.4-0.7,0.7c-0.2,0.3-0.3,0.6-0.4,0.9s-0.1,0.7-0.1,1.1c0,0.4,0,0.7,0.1,1.1s0.2,0.7,0.4,0.9s0.4,0.5,0.7,0.7
		C514.2,220.4,514.6,220.5,515,220.5z"/>
	<path d="M520.7,213.4h1.7v1.2l0,0c0.3-0.5,0.6-0.8,1.1-1.1c0.4-0.3,0.9-0.4,1.5-0.4c0.9,0,1.6,0.2,2.1,0.7c0.5,0.5,0.8,1.2,0.8,2.1
		v5.7h-1.8v-5.2c0-0.7-0.2-1.1-0.4-1.4c-0.3-0.3-0.7-0.4-1.2-0.4c-0.3,0-0.6,0.1-0.8,0.2c-0.2,0.1-0.5,0.3-0.6,0.5
		c-0.2,0.2-0.3,0.4-0.4,0.7c-0.1,0.3-0.1,0.5-0.1,0.8v4.9h-1.8V213.4z"/>
	<path d="M529,213.4h1.4v-2.5h1.8v2.5h1.6v1.4h-1.6v4.4c0,0.2,0,0.4,0,0.5c0,0.1,0.1,0.3,0.1,0.4c0.1,0.1,0.1,0.2,0.3,0.2
		c0.1,0,0.3,0.1,0.5,0.1c0.1,0,0.3,0,0.4,0c0.1,0,0.3,0,0.4-0.1v1.4c-0.2,0-0.4,0-0.6,0.1c-0.2,0-0.4,0-0.6,0c-0.5,0-0.9,0-1.2-0.1
		c-0.3-0.1-0.5-0.2-0.7-0.4c-0.2-0.2-0.3-0.4-0.3-0.7c-0.1-0.3-0.1-0.6-0.1-0.9v-4.9H529V213.4z"/>
	<path d="M542.1,219.8c0,0.2,0,0.4,0.1,0.5c0.1,0.1,0.2,0.1,0.3,0.1c0.1,0,0.1,0,0.2,0c0.1,0,0.2,0,0.3,0v1.3c-0.1,0-0.1,0-0.2,0.1
		c-0.1,0-0.2,0.1-0.3,0.1s-0.2,0-0.3,0s-0.2,0-0.3,0c-0.4,0-0.7-0.1-0.9-0.2c-0.2-0.1-0.4-0.4-0.5-0.8c-0.4,0.4-0.8,0.6-1.3,0.8
		c-0.5,0.2-1,0.2-1.5,0.2c-0.4,0-0.7-0.1-1.1-0.2c-0.3-0.1-0.6-0.3-0.9-0.4c-0.3-0.2-0.5-0.4-0.6-0.8c-0.2-0.3-0.2-0.7-0.2-1.1
		c0-0.5,0.1-0.9,0.3-1.2c0.2-0.3,0.4-0.6,0.7-0.8c0.3-0.2,0.6-0.3,1-0.4s0.8-0.1,1.1-0.2c0.3-0.1,0.6-0.1,0.9-0.1
		c0.3,0,0.6-0.1,0.8-0.1s0.4-0.2,0.5-0.3c0.1-0.1,0.2-0.3,0.2-0.6c0-0.2-0.1-0.4-0.2-0.6c-0.1-0.1-0.3-0.3-0.4-0.3s-0.3-0.1-0.6-0.2
		c-0.2,0-0.4,0-0.6,0c-0.5,0-0.9,0.1-1.3,0.3c-0.3,0.2-0.5,0.5-0.6,1H535c0-0.5,0.2-1,0.4-1.3c0.2-0.4,0.5-0.6,0.9-0.8
		s0.7-0.4,1.2-0.4c0.4-0.1,0.9-0.1,1.3-0.1c0.4,0,0.8,0,1.2,0.1c0.4,0.1,0.7,0.2,1.1,0.4c0.3,0.2,0.6,0.4,0.8,0.7
		c0.2,0.3,0.3,0.7,0.3,1.1V219.8z M540.3,217.5c-0.3,0.2-0.6,0.3-1,0.3c-0.4,0-0.8,0.1-1.2,0.2c-0.2,0-0.4,0.1-0.6,0.1
		s-0.3,0.1-0.5,0.2c-0.1,0.1-0.2,0.2-0.3,0.4c-0.1,0.2-0.1,0.4-0.1,0.6c0,0.2,0.1,0.4,0.2,0.5s0.3,0.2,0.4,0.3
		c0.2,0.1,0.3,0.1,0.5,0.2c0.2,0,0.4,0,0.5,0c0.2,0,0.4,0,0.7-0.1s0.5-0.1,0.7-0.3s0.4-0.3,0.5-0.5c0.1-0.2,0.2-0.4,0.2-0.7V217.5z"
		/>
	<path d="M544.1,210.2h1.8v1.7h-1.8V210.2z M544.1,213.4h1.8v8.3h-1.8V213.4z"/>
	<path d="M547.9,213.4h1.7v1.2l0,0c0.3-0.5,0.6-0.8,1.1-1.1c0.4-0.3,0.9-0.4,1.5-0.4c0.9,0,1.6,0.2,2.1,0.7c0.5,0.5,0.8,1.2,0.8,2.1
		v5.7h-1.8v-5.2c0-0.7-0.2-1.1-0.4-1.4c-0.3-0.3-0.7-0.4-1.2-0.4c-0.3,0-0.6,0.1-0.8,0.2c-0.2,0.1-0.5,0.3-0.6,0.5
		c-0.2,0.2-0.3,0.4-0.4,0.7c-0.1,0.3-0.1,0.5-0.1,0.8v4.9h-1.8V213.4z"/>
	<path d="M558.5,218c0,0.3,0,0.6,0.1,0.9c0.1,0.3,0.2,0.6,0.4,0.8c0.2,0.2,0.4,0.4,0.7,0.5c0.3,0.1,0.6,0.2,1,0.2
		c0.5,0,1-0.1,1.3-0.3c0.3-0.2,0.6-0.6,0.7-1h1.7c-0.1,0.4-0.3,0.8-0.5,1.2c-0.2,0.4-0.5,0.6-0.8,0.9c-0.3,0.2-0.7,0.4-1.1,0.5
		c-0.4,0.1-0.8,0.2-1.3,0.2c-0.7,0-1.2-0.1-1.7-0.3c-0.5-0.2-0.9-0.5-1.3-0.9c-0.3-0.4-0.6-0.8-0.8-1.4s-0.3-1.1-0.3-1.8
		c0-0.6,0.1-1.1,0.3-1.7c0.2-0.5,0.5-1,0.8-1.4c0.3-0.4,0.8-0.7,1.3-1c0.5-0.2,1-0.4,1.7-0.4c0.7,0,1.2,0.1,1.8,0.4
		c0.5,0.3,0.9,0.6,1.3,1.1c0.3,0.4,0.6,1,0.7,1.5s0.2,1.2,0.1,1.8H558.5z M562.8,216.8c0-0.3-0.1-0.6-0.2-0.8
		c-0.1-0.3-0.2-0.5-0.4-0.7s-0.4-0.4-0.6-0.5c-0.3-0.1-0.5-0.2-0.8-0.2c-0.3,0-0.6,0.1-0.9,0.2c-0.3,0.1-0.5,0.3-0.7,0.5
		s-0.3,0.4-0.4,0.7c-0.1,0.3-0.2,0.6-0.2,0.9H562.8z"/>
	<path d="M566,213.4h1.7v1.6h0c0.1-0.2,0.2-0.4,0.3-0.7c0.2-0.2,0.3-0.4,0.6-0.6c0.2-0.2,0.5-0.3,0.7-0.4s0.5-0.2,0.8-0.2
		c0.2,0,0.4,0,0.4,0c0.1,0,0.2,0,0.2,0v1.8c-0.1,0-0.3,0-0.4-0.1c-0.1,0-0.3,0-0.4,0c-0.3,0-0.6,0.1-0.9,0.2
		c-0.3,0.1-0.5,0.3-0.7,0.5c-0.2,0.2-0.4,0.5-0.5,0.9c-0.1,0.4-0.2,0.8-0.2,1.2v3.9H566V213.4z"/>
</g>
</svg>
