<?xml version="1.0" encoding="utf-8"?>
<svg version="1.1" id="Layer_1" xmlns="http://www.w3.org/2000/svg" xmlns:xlink="http://www.w3.org/1999/xlink" x="0px" y="0px"
	 viewBox="0 0 660 400" enable-background="new 0 0 660 400" xml:space="preserve">
<g>
	<polygon opacity="0.1" fill-rule="evenodd" clip-rule="evenodd" points="380.3,178.9 330,149.9 330,91.8 380.3,120.8"/>
	<g>
		<path fill="#666666" d="M349.4,133c0,0.3,0.1,0.5,0.3,0.7c0.2,0.2,0.3,0.4,0.6,0.5c0.1,0,0.2,0.1,0.3,0.1c0.1,0,0.2,0.1,0.3,0.1
			c0.1,0,0.2,0,0.2,0c0.1,0,0.1-0.1,0.1-0.2c0-0.1,0-0.2-0.1-0.4c-0.1-0.1-0.2-0.2-0.3-0.3c-0.1-0.1-0.2-0.2-0.4-0.3
			c-0.1-0.1-0.3-0.2-0.4-0.4c-0.1-0.1-0.3-0.3-0.4-0.4c-0.1-0.1-0.3-0.3-0.4-0.4c-0.1-0.2-0.2-0.3-0.3-0.5c-0.1-0.2-0.1-0.4-0.1-0.6
			c0-0.2,0-0.4,0.1-0.5c0.1-0.1,0.2-0.2,0.4-0.2c0.1,0,0.3,0,0.5,0.1c0.2,0.1,0.4,0.1,0.5,0.2c0.2,0.1,0.4,0.2,0.5,0.4
			c0.2,0.1,0.3,0.3,0.5,0.5c0.1,0.2,0.3,0.4,0.3,0.6c0.1,0.2,0.1,0.4,0.2,0.7l-0.8-0.5c0-0.2-0.1-0.4-0.3-0.6
			c-0.1-0.2-0.3-0.3-0.5-0.4c-0.1,0-0.1-0.1-0.2-0.1c-0.1,0-0.1-0.1-0.2-0.1c-0.1,0-0.1,0-0.2,0c0,0-0.1,0.1-0.1,0.2
			c0,0.1,0,0.2,0.1,0.3c0.1,0.1,0.2,0.2,0.3,0.3c0.1,0.1,0.2,0.2,0.4,0.3c0.1,0.1,0.3,0.2,0.4,0.4c0.1,0.1,0.3,0.2,0.4,0.4
			c0.1,0.1,0.3,0.3,0.4,0.4c0.1,0.2,0.2,0.3,0.3,0.5c0.1,0.2,0.1,0.4,0.1,0.6c0,0.2,0,0.4-0.1,0.5c-0.1,0.1-0.2,0.2-0.4,0.2
			c-0.2,0-0.3,0-0.5-0.1c-0.2-0.1-0.4-0.1-0.6-0.3c-0.2-0.1-0.4-0.3-0.6-0.5c-0.2-0.2-0.4-0.4-0.5-0.6c-0.1-0.2-0.3-0.4-0.3-0.6
			c-0.1-0.2-0.1-0.5-0.1-0.7L349.4,133z"/>
		<path fill="#666666" d="M352.5,130.3l0.8,0.5v0.9l-0.8-0.5V130.3z M352.5,131.9l0.8,0.5v4.2l-0.8-0.5V131.9z"/>
		<path fill="#666666" d="M357.5,139l-0.8-0.4V138l0,0c-0.1,0.2-0.3,0.3-0.5,0.3c-0.2,0-0.4-0.1-0.7-0.2c-0.3-0.2-0.5-0.4-0.7-0.6
			c-0.2-0.2-0.4-0.5-0.5-0.8c-0.1-0.3-0.2-0.6-0.3-0.9c-0.1-0.3-0.1-0.6-0.1-0.9c0-0.4,0-0.7,0.1-0.9c0.1-0.2,0.2-0.4,0.4-0.5
			c0.1-0.1,0.3-0.1,0.5-0.1c0.2,0,0.4,0.1,0.6,0.2c0.1,0.1,0.2,0.1,0.3,0.2c0.1,0.1,0.2,0.2,0.3,0.3c0.1,0.1,0.2,0.2,0.3,0.4
			c0.1,0.1,0.2,0.3,0.2,0.4l0,0v-2.1l0.8,0.5V139z M354.7,135.4c0,0.2,0,0.4,0.1,0.6c0,0.2,0.1,0.4,0.2,0.6s0.2,0.3,0.3,0.5
			c0.1,0.2,0.3,0.3,0.4,0.4c0.2,0.1,0.3,0.1,0.5,0.1c0.1,0,0.2-0.1,0.3-0.2c0.1-0.1,0.1-0.2,0.2-0.4c0-0.2,0.1-0.3,0.1-0.5
			c0-0.5-0.1-0.9-0.3-1.2c-0.2-0.4-0.4-0.6-0.7-0.8c-0.2-0.1-0.3-0.2-0.5-0.1c-0.1,0-0.2,0.1-0.3,0.2c-0.1,0.1-0.1,0.2-0.2,0.4
			C354.8,135,354.7,135.2,354.7,135.4z"/>
		<path fill="#666666" d="M359,138.1c0,0.2,0,0.3,0.1,0.5c0,0.2,0.1,0.3,0.2,0.5c0.1,0.2,0.2,0.3,0.3,0.4c0.1,0.1,0.3,0.3,0.4,0.4
			c0.2,0.1,0.4,0.2,0.6,0.2c0.1,0,0.2-0.1,0.3-0.3l0.8,0.4c0,0.2-0.1,0.4-0.2,0.5c-0.1,0.1-0.2,0.2-0.4,0.2c-0.1,0-0.3,0-0.5,0
			c-0.2,0-0.4-0.1-0.6-0.2c-0.3-0.2-0.5-0.4-0.8-0.6c-0.2-0.2-0.4-0.5-0.6-0.8c-0.2-0.3-0.3-0.6-0.3-0.9c-0.1-0.3-0.1-0.6-0.1-1
			c0-0.3,0-0.6,0.1-0.8c0.1-0.2,0.2-0.4,0.3-0.5c0.2-0.1,0.3-0.2,0.5-0.2c0.2,0,0.5,0.1,0.7,0.2c0.3,0.2,0.5,0.4,0.8,0.6
			c0.2,0.3,0.4,0.6,0.6,0.9c0.1,0.3,0.3,0.6,0.3,1c0.1,0.3,0.1,0.6,0.1,0.9L359,138.1z M360.9,138.5c0-0.2,0-0.3-0.1-0.5
			c0-0.2-0.1-0.3-0.2-0.5c-0.1-0.1-0.2-0.3-0.3-0.4c-0.1-0.1-0.2-0.2-0.4-0.3c-0.1-0.1-0.3-0.1-0.4-0.1c-0.1,0-0.2,0-0.3,0.1
			c-0.1,0.1-0.1,0.1-0.2,0.2c0,0.1-0.1,0.2-0.1,0.4L360.9,138.5z"/>
	</g>
</g>
<g>
	<polygon opacity="0.1" fill-rule="evenodd" clip-rule="evenodd" points="161.3,149.9 111.1,178.9 111.1,120.8 161.3,91.8"/>
	<g>
		<path fill="#666666" d="M128.8,137.8l0.6-0.3v-0.3c0-0.3,0-0.5,0.1-0.7c0.1-0.2,0.1-0.4,0.2-0.5c0.1-0.1,0.2-0.3,0.3-0.4
			c0.1-0.1,0.2-0.2,0.4-0.3c0.3-0.1,0.4-0.2,0.6-0.3v0.7c-0.1,0-0.1,0-0.2,0.1c-0.1,0-0.1,0.1-0.2,0.1c-0.1,0.1-0.2,0.1-0.3,0.2
			c-0.1,0.1-0.1,0.2-0.1,0.4v0.4l0.7-0.4v0.7l-0.7,0.4v3.5l-0.8,0.5v-3.5l-0.6,0.3V137.8z"/>
		<path fill="#666666" d="M131.3,136.3l0.7-0.4v0.8l0,0c0-0.1,0.1-0.3,0.1-0.4c0.1-0.1,0.1-0.3,0.2-0.4c0.1-0.1,0.2-0.3,0.3-0.4
			c0.1-0.1,0.2-0.2,0.4-0.3c0.1-0.1,0.2-0.1,0.2-0.1c0,0,0.1,0,0.1,0v0.9c-0.1,0-0.1,0-0.2,0.1c-0.1,0-0.1,0.1-0.2,0.1
			c-0.1,0.1-0.3,0.2-0.4,0.3c-0.1,0.1-0.2,0.3-0.3,0.5c-0.1,0.2-0.2,0.4-0.2,0.6c-0.1,0.2-0.1,0.4-0.1,0.7v2l-0.8,0.5V136.3z"/>
		<path fill="#666666" d="M135.3,138.3c-0.3,0.2-0.5,0.3-0.8,0.3c-0.2,0-0.4,0-0.6-0.1c-0.2-0.1-0.3-0.3-0.4-0.5
			c-0.1-0.2-0.1-0.5-0.1-0.8c0-0.3,0-0.6,0.1-1c0.1-0.3,0.2-0.6,0.4-0.9c0.2-0.3,0.3-0.5,0.6-0.8c0.2-0.2,0.5-0.4,0.8-0.6
			s0.5-0.3,0.8-0.3c0.2,0,0.4,0,0.6,0.1c0.2,0.1,0.3,0.3,0.4,0.5c0.1,0.2,0.1,0.5,0.1,0.8c0,0.3,0,0.6-0.1,1
			c-0.1,0.3-0.2,0.6-0.4,0.9c-0.2,0.3-0.3,0.5-0.6,0.8C135.9,137.9,135.6,138.1,135.3,138.3z M135.3,137.6c0.2-0.1,0.3-0.2,0.5-0.4
			c0.1-0.2,0.2-0.3,0.3-0.5c0.1-0.2,0.1-0.4,0.2-0.6c0-0.2,0.1-0.4,0.1-0.6c0-0.2,0-0.3-0.1-0.5c0-0.2-0.1-0.3-0.2-0.4
			c-0.1-0.1-0.2-0.1-0.3-0.1c-0.1,0-0.3,0-0.5,0.1c-0.2,0.1-0.3,0.2-0.5,0.4c-0.1,0.2-0.2,0.3-0.3,0.5c-0.1,0.2-0.1,0.4-0.2,0.6
			c0,0.2-0.1,0.4-0.1,0.6c0,0.2,0,0.4,0.1,0.5c0,0.2,0.1,0.3,0.2,0.4s0.2,0.1,0.3,0.2C135,137.7,135.1,137.7,135.3,137.6z"/>
		<path fill="#666666" d="M137.8,132.6l0.8-0.4v0.6l0,0c0.1-0.3,0.3-0.6,0.5-0.8c0.2-0.2,0.4-0.4,0.7-0.6c0.4-0.2,0.7-0.3,0.9-0.2
			c0.2,0.1,0.3,0.4,0.3,0.9v2.9l-0.8,0.5v-2.6c0-0.3-0.1-0.5-0.2-0.6c-0.1-0.1-0.3-0.1-0.5,0.1c-0.1,0.1-0.3,0.2-0.4,0.3
			c-0.1,0.1-0.2,0.2-0.3,0.4c-0.1,0.1-0.1,0.3-0.2,0.5c0,0.2-0.1,0.3-0.1,0.5v2.5l-0.8,0.5V132.6z"/>
		<path fill="#666666" d="M141.4,130.5l0.6-0.3v-1.3l0.8-0.5v1.3l0.7-0.4v0.7l-0.7,0.4v2.2c0,0.1,0,0.2,0,0.2c0,0.1,0,0.1,0,0.1
			s0.1,0,0.1,0c0.1,0,0.1,0,0.2-0.1c0.1,0,0.1-0.1,0.2-0.1c0.1,0,0.1-0.1,0.2-0.1v0.7c-0.1,0.1-0.2,0.1-0.3,0.2
			c-0.1,0.1-0.2,0.1-0.3,0.2c-0.2,0.1-0.4,0.2-0.5,0.2c-0.1,0-0.2,0-0.3,0c-0.1,0-0.1-0.1-0.1-0.3c0-0.1,0-0.3,0-0.4v-2.5l-0.6,0.3
			V130.5z"/>
	</g>
</g>
<g opacity="0.25">
	<g>
		<g>
			<line fill="none" stroke="#000000" stroke-miterlimit="10" x1="161.3" y1="65.3" x2="161.3" y2="149.9"/>
			<g>
				<polygon points="158.8,66 161.3,61.7 163.8,66"/>
			</g>
		</g>
	</g>
	<g>
		<g>
			<line fill="none" stroke="#000000" stroke-miterlimit="10" x1="234.6" y1="192.1" x2="161.3" y2="149.9"/>
			<g>
				<polygon points="235.2,189.6 237.7,193.9 232.7,193.9"/>
			</g>
		</g>
		<line fill-rule="evenodd" clip-rule="evenodd" fill="#FFFFFF" x1="237.7" y1="193.9" x2="161.3" y2="149.9"/>
	</g>
	<g>
		<g>
			<line fill="none" stroke="#000000" stroke-miterlimit="10" x1="88.1" y1="192.1" x2="161.3" y2="149.9"/>
			<g>
				<polygon points="90,193.9 85,193.9 87.5,189.6"/>
			</g>
		</g>
		<line fill-rule="evenodd" clip-rule="evenodd" fill="#FFFFFF" x1="85" y1="193.9" x2="161.3" y2="149.9"/>
	</g>
</g>
<g opacity="0.25">
	<g>
		<g>
			<line fill="none" stroke="#000000" stroke-miterlimit="10" x1="330" y1="65.3" x2="330" y2="149.9"/>
			<g>
				<polygon points="327.5,66 330,61.7 332.5,66"/>
			</g>
		</g>
	</g>
	<g>
		<g>
			<line fill="none" stroke="#000000" stroke-miterlimit="10" x1="403.2" y1="192.1" x2="330" y2="149.9"/>
			<g>
				<polygon points="403.8,189.6 406.3,193.9 401.3,193.9"/>
			</g>
		</g>
		<line fill-rule="evenodd" clip-rule="evenodd" fill="#FFFFFF" x1="406.3" y1="193.9" x2="330" y2="149.9"/>
	</g>
	<g>
		<g>
			<line fill="none" stroke="#000000" stroke-miterlimit="10" x1="256.8" y1="192.1" x2="330" y2="149.9"/>
			<g>
				<polygon points="258.7,193.9 253.7,193.9 256.2,189.6"/>
			</g>
		</g>
		<line fill-rule="evenodd" clip-rule="evenodd" fill="#FFFFFF" x1="253.7" y1="193.9" x2="330" y2="149.9"/>
	</g>
</g>
<g>
	<polygon opacity="0.1" fill-rule="evenodd" clip-rule="evenodd" fill="#FF0000" points="330,207.9 279.7,178.9 279.7,120.8 
		330,149.9"/>
	<g>
		<path d="M299.2,162c0,0.3,0.1,0.5,0.3,0.7c0.2,0.2,0.3,0.4,0.6,0.5c0.1,0,0.2,0.1,0.3,0.1c0.1,0,0.2,0.1,0.3,0.1
			c0.1,0,0.2,0,0.2,0s0.1-0.1,0.1-0.2s0-0.2-0.1-0.4c-0.1-0.1-0.2-0.2-0.3-0.3c-0.1-0.1-0.2-0.2-0.4-0.3c-0.1-0.1-0.3-0.2-0.4-0.4
			c-0.1-0.1-0.3-0.3-0.4-0.4c-0.1-0.1-0.3-0.3-0.4-0.4c-0.1-0.2-0.2-0.3-0.3-0.5c-0.1-0.2-0.1-0.4-0.1-0.6c0-0.2,0-0.4,0.1-0.5
			c0.1-0.1,0.2-0.2,0.4-0.2c0.1,0,0.3,0,0.5,0.1c0.2,0.1,0.4,0.1,0.5,0.2c0.2,0.1,0.4,0.2,0.5,0.4c0.2,0.1,0.3,0.3,0.5,0.5
			c0.1,0.2,0.3,0.4,0.3,0.6c0.1,0.2,0.1,0.4,0.2,0.7l-0.8-0.5c0-0.2-0.1-0.4-0.3-0.6c-0.1-0.2-0.3-0.3-0.5-0.4
			c-0.1,0-0.1-0.1-0.2-0.1c-0.1,0-0.1-0.1-0.2-0.1c-0.1,0-0.1,0-0.2,0s-0.1,0.1-0.1,0.2c0,0.1,0,0.2,0.1,0.3
			c0.1,0.1,0.2,0.2,0.3,0.3c0.1,0.1,0.2,0.2,0.4,0.3c0.1,0.1,0.3,0.2,0.4,0.4c0.1,0.1,0.3,0.2,0.4,0.4c0.1,0.1,0.3,0.3,0.4,0.4
			c0.1,0.2,0.2,0.3,0.3,0.5c0.1,0.2,0.1,0.4,0.1,0.6c0,0.2,0,0.4-0.1,0.5c-0.1,0.1-0.2,0.2-0.4,0.2c-0.2,0-0.3,0-0.5-0.1
			c-0.2-0.1-0.4-0.1-0.6-0.3c-0.2-0.1-0.4-0.3-0.6-0.5c-0.2-0.2-0.4-0.4-0.5-0.6c-0.1-0.2-0.3-0.4-0.3-0.6c-0.1-0.2-0.1-0.5-0.1-0.7
			L299.2,162z"/>
		<path d="M302.2,159.4l0.8,0.5v0.9l-0.8-0.5V159.4z M302.2,161l0.8,0.5v4.2l-0.8-0.5V161z"/>
		<path d="M307.3,168.1l-0.8-0.4v-0.6l0,0c-0.1,0.2-0.3,0.3-0.5,0.3c-0.2,0-0.4-0.1-0.7-0.2c-0.3-0.2-0.5-0.4-0.7-0.6
			c-0.2-0.2-0.4-0.5-0.5-0.8c-0.1-0.3-0.2-0.6-0.3-0.9c-0.1-0.3-0.1-0.6-0.1-0.9c0-0.4,0-0.7,0.1-0.9c0.1-0.2,0.2-0.4,0.4-0.5
			c0.1-0.1,0.3-0.1,0.5-0.1c0.2,0,0.4,0.1,0.6,0.2c0.1,0.1,0.2,0.1,0.3,0.2c0.1,0.1,0.2,0.2,0.3,0.3c0.1,0.1,0.2,0.2,0.3,0.4
			c0.1,0.1,0.2,0.3,0.2,0.4l0,0v-2.1l0.8,0.5V168.1z M304.5,164.4c0,0.2,0,0.4,0.1,0.6c0,0.2,0.1,0.4,0.2,0.6s0.2,0.3,0.3,0.5
			c0.1,0.2,0.3,0.3,0.4,0.4c0.2,0.1,0.3,0.1,0.5,0.1c0.1,0,0.2-0.1,0.3-0.2c0.1-0.1,0.1-0.2,0.2-0.4c0-0.2,0.1-0.3,0.1-0.5
			c0-0.5-0.1-0.9-0.3-1.2c-0.2-0.4-0.4-0.6-0.7-0.8c-0.2-0.1-0.3-0.2-0.5-0.1c-0.1,0-0.2,0.1-0.3,0.2c-0.1,0.1-0.1,0.2-0.2,0.4
			C304.5,164,304.5,164.2,304.5,164.4z"/>
		<path d="M308.8,167.1c0,0.2,0,0.3,0.1,0.5c0,0.2,0.1,0.3,0.2,0.5c0.1,0.2,0.2,0.3,0.3,0.4c0.1,0.1,0.3,0.3,0.4,0.4
			c0.2,0.1,0.4,0.2,0.6,0.2c0.1,0,0.2-0.1,0.3-0.3l0.8,0.4c0,0.2-0.1,0.4-0.2,0.5c-0.1,0.1-0.2,0.2-0.4,0.2c-0.1,0-0.3,0-0.5,0
			c-0.2,0-0.4-0.1-0.6-0.2c-0.3-0.2-0.5-0.4-0.8-0.6c-0.2-0.2-0.4-0.5-0.6-0.8c-0.2-0.3-0.3-0.6-0.3-0.9c-0.1-0.3-0.1-0.6-0.1-1
			c0-0.3,0-0.6,0.1-0.8c0.1-0.2,0.2-0.4,0.3-0.5c0.2-0.1,0.3-0.2,0.5-0.2c0.2,0,0.5,0.1,0.7,0.2c0.3,0.2,0.5,0.4,0.8,0.6
			c0.2,0.3,0.4,0.6,0.6,0.9c0.1,0.3,0.3,0.6,0.3,1c0.1,0.3,0.1,0.6,0.1,0.9L308.8,167.1z M310.6,167.5c0-0.2,0-0.3-0.1-0.5
			c0-0.2-0.1-0.3-0.2-0.5c-0.1-0.1-0.2-0.3-0.3-0.4c-0.1-0.1-0.2-0.2-0.4-0.3c-0.1-0.1-0.3-0.1-0.4-0.1c-0.1,0-0.2,0-0.3,0.1
			c-0.1,0.1-0.1,0.1-0.2,0.2c0,0.1-0.1,0.2-0.1,0.4L310.6,167.5z"/>
	</g>
</g>
<g opacity="0.25">
	<g>
		<g>
			<line fill="none" stroke="#000000" stroke-miterlimit="10" x1="498.7" y1="65.3" x2="498.7" y2="149.9"/>
			<g>
				<polygon points="496.2,66 498.7,61.7 501.2,66"/>
			</g>
		</g>
	</g>
	<g>
		<g>
			<line fill="none" stroke="#000000" stroke-miterlimit="10" x1="571.9" y1="192.1" x2="498.7" y2="149.9"/>
			<g>
				<polygon points="572.5,189.6 575,193.9 570,193.9"/>
			</g>
		</g>
		<line fill-rule="evenodd" clip-rule="evenodd" fill="#FFFFFF" x1="575" y1="193.9" x2="498.7" y2="149.9"/>
	</g>
	<g>
		<g>
			<line fill="none" stroke="#000000" stroke-miterlimit="10" x1="425.4" y1="192.1" x2="498.7" y2="149.9"/>
			<g>
				<polygon points="427.3,193.9 422.3,193.9 424.8,189.6"/>
			</g>
		</g>
		<line fill-rule="evenodd" clip-rule="evenodd" fill="#FFFFFF" x1="422.3" y1="193.9" x2="498.7" y2="149.9"/>
	</g>
</g>
<g>
	<polygon opacity="0.1" fill-rule="evenodd" clip-rule="evenodd" fill="#00FF00" points="211.6,178.9 161.3,207.9 161.3,149.9 
		211.6,120.8"/>
	<g>
		<path d="M179,166.8l0.6-0.3v-0.3c0-0.3,0-0.5,0.1-0.7s0.1-0.4,0.2-0.5c0.1-0.1,0.2-0.3,0.3-0.4c0.1-0.1,0.2-0.2,0.4-0.3
			c0.3-0.1,0.4-0.2,0.6-0.3v0.7c-0.1,0-0.1,0-0.2,0.1c-0.1,0-0.1,0.1-0.2,0.1c-0.1,0.1-0.2,0.1-0.3,0.2s-0.1,0.2-0.1,0.4v0.4
			l0.7-0.4v0.7l-0.7,0.4v3.5l-0.8,0.5v-3.5l-0.6,0.3V166.8z"/>
		<path d="M181.6,165.3l0.7-0.4v0.8l0,0c0-0.1,0.1-0.3,0.1-0.4c0.1-0.1,0.1-0.3,0.2-0.4c0.1-0.1,0.2-0.3,0.3-0.4
			c0.1-0.1,0.2-0.2,0.4-0.3c0.1-0.1,0.2-0.1,0.2-0.1c0,0,0.1,0,0.1,0v0.9c-0.1,0-0.1,0-0.2,0.1c-0.1,0-0.1,0.1-0.2,0.1
			c-0.1,0.1-0.3,0.2-0.4,0.3c-0.1,0.1-0.2,0.3-0.3,0.5c-0.1,0.2-0.2,0.4-0.2,0.6c-0.1,0.2-0.1,0.4-0.1,0.7v2l-0.8,0.5V165.3z"/>
		<path d="M185.6,167.3c-0.3,0.2-0.5,0.3-0.8,0.3c-0.2,0-0.4,0-0.6-0.1c-0.2-0.1-0.3-0.3-0.4-0.5c-0.1-0.2-0.1-0.5-0.1-0.8
			c0-0.3,0-0.6,0.1-1c0.1-0.3,0.2-0.6,0.4-0.9c0.2-0.3,0.3-0.5,0.6-0.8c0.2-0.2,0.5-0.4,0.8-0.6s0.5-0.3,0.8-0.3
			c0.2,0,0.4,0,0.6,0.1s0.3,0.3,0.4,0.5c0.1,0.2,0.1,0.5,0.1,0.8c0,0.3,0,0.6-0.1,1c-0.1,0.3-0.2,0.6-0.4,0.9
			c-0.2,0.3-0.3,0.5-0.6,0.8C186.1,166.9,185.9,167.1,185.6,167.3z M185.6,166.6c0.2-0.1,0.3-0.2,0.5-0.4c0.1-0.2,0.2-0.3,0.3-0.5
			c0.1-0.2,0.1-0.4,0.2-0.6c0-0.2,0.1-0.4,0.1-0.6c0-0.2,0-0.3-0.1-0.5c0-0.2-0.1-0.3-0.2-0.4c-0.1-0.1-0.2-0.1-0.3-0.1
			c-0.1,0-0.3,0-0.5,0.1s-0.3,0.2-0.5,0.4c-0.1,0.2-0.2,0.3-0.3,0.5c-0.1,0.2-0.1,0.4-0.2,0.6c0,0.2-0.1,0.4-0.1,0.6
			c0,0.2,0,0.4,0.1,0.5c0,0.2,0.1,0.3,0.2,0.4c0.1,0.1,0.2,0.1,0.3,0.2C185.2,166.7,185.4,166.7,185.6,166.6z"/>
		<path d="M188.1,161.6l0.8-0.4v0.6l0,0c0.1-0.3,0.3-0.6,0.5-0.8c0.2-0.2,0.4-0.4,0.7-0.6c0.4-0.2,0.7-0.3,0.9-0.2
			c0.2,0.1,0.3,0.4,0.3,0.9v2.9l-0.8,0.5v-2.6c0-0.3-0.1-0.5-0.2-0.6c-0.1-0.1-0.3-0.1-0.5,0.1c-0.1,0.1-0.3,0.2-0.4,0.3
			c-0.1,0.1-0.2,0.2-0.3,0.4c-0.1,0.1-0.1,0.3-0.2,0.5c0,0.2-0.1,0.3-0.1,0.5v2.5l-0.8,0.5V161.6z"/>
		<path d="M191.7,159.5l0.6-0.3v-1.3l0.8-0.5v1.3l0.7-0.4v0.7l-0.7,0.4v2.2c0,0.1,0,0.2,0,0.2c0,0.1,0,0.1,0,0.1s0.1,0,0.1,0
			c0.1,0,0.1,0,0.2-0.1c0.1,0,0.1-0.1,0.2-0.1c0.1,0,0.1-0.1,0.2-0.1v0.7c-0.1,0.1-0.2,0.1-0.3,0.2c-0.1,0.1-0.2,0.1-0.3,0.2
			c-0.2,0.1-0.4,0.2-0.5,0.2c-0.1,0-0.2,0-0.3,0c-0.1,0-0.1-0.1-0.1-0.3c0-0.1,0-0.3,0-0.4v-2.5l-0.6,0.3V159.5z"/>
	</g>
</g>
<g>
	<g>
		<line fill="none" stroke="#000000" stroke-miterlimit="10" x1="111.1" y1="120.9" x2="158.2" y2="148.3"/>
		<g>
			<polygon points="156.3,150.1 161.3,150.1 158.9,145.8"/>
		</g>
	</g>
</g>
<g>
	<g>
		<line fill="none" stroke="#000000" stroke-miterlimit="10" x1="161.3" y1="91.7" x2="208.5" y2="119.1"/>
		<g>
			<polygon points="206.6,120.9 211.6,120.9 209.1,116.6"/>
		</g>
	</g>
</g>
<g>
	<g>
		<line fill="none" stroke="#000000" stroke-miterlimit="10" x1="330" y1="92.5" x2="282.9" y2="119.1"/>
		<g>
			<polygon points="282.3,116.6 279.7,120.8 284.7,120.9"/>
		</g>
	</g>
</g>
<g>
	<g>
		<line fill="none" stroke="#000000" stroke-miterlimit="10" x1="448.8" y1="178.9" x2="448.8" y2="124.5"/>
		<g>
			<polygon points="451.3,125.2 448.8,120.9 446.3,125.2"/>
		</g>
	</g>
</g>
<g>
	<g>
		<line fill="none" stroke="#000000" stroke-miterlimit="10" x1="548.9" y1="178.9" x2="548.9" y2="124.5"/>
		<g>
			<polygon points="551.4,125.2 548.9,120.9 546.4,125.2"/>
		</g>
	</g>
</g>
<g>
	<g>
		<line fill="none" stroke="#000000" stroke-miterlimit="10" x1="498.7" y1="207.9" x2="498.7" y2="153.5"/>
		<g>
			<polygon points="501.2,154.2 498.7,149.9 496.2,154.2"/>
		</g>
	</g>
</g>
<g>
	<g>
		<line fill="none" stroke="#000000" stroke-miterlimit="10" x1="380.3" y1="121.3" x2="333.1" y2="147.9"/>
		<g>
			<polygon points="332.5,145.4 330,149.7 335,149.7"/>
		</g>
	</g>
</g>
<g>
	<g>
		<line fill="none" stroke="#000000" stroke-miterlimit="10" x1="380.3" y1="178.9" x2="333.1" y2="205.5"/>
		<g>
			<polygon points="332.5,203 330,207.3 335,207.3"/>
		</g>
	</g>
</g>
<g>
	<g>
		<line fill="none" stroke="#000000" stroke-miterlimit="10" x1="111.1" y1="178.5" x2="158.2" y2="205.9"/>
		<g>
			<polygon points="156.3,207.7 161.3,207.7 158.9,203.4"/>
		</g>
	</g>
</g>
<g>
	<polygon opacity="0.1" fill-rule="evenodd" clip-rule="evenodd" fill="#0000FF" points="548.9,120.8 498.7,149.9 448.4,120.8 
		498.7,91.8"/>
	<g>
		<path d="M491.7,123l0.6-0.3l-1.1-0.6l0.8-0.5l1.1,0.6l0.7-0.4l0.6,0.3l-0.7,0.4l1.9,1.1c0.1,0,0.2,0.1,0.2,0.1
			c0.1,0,0.1,0.1,0.2,0.1c0.1,0,0.1,0,0.2,0c0.1,0,0.2-0.1,0.2-0.1c0.1,0,0.1-0.1,0.2-0.1c0.1,0,0.1-0.1,0.1-0.1l0.6,0.4
			c-0.1,0.1-0.2,0.1-0.2,0.2c-0.1,0.1-0.2,0.1-0.2,0.2c-0.2,0.1-0.4,0.2-0.6,0.3c-0.2,0.1-0.3,0.1-0.5,0.1c-0.1,0-0.3,0-0.4-0.1
			c-0.1-0.1-0.3-0.1-0.4-0.2l-2.1-1.2l-0.6,0.3L491.7,123z"/>
		<path d="M499.8,122.6c-0.3,0.2-0.6,0.3-0.9,0.4c-0.3,0.1-0.6,0.1-1,0.1c-0.3,0-0.6-0.1-1-0.1c-0.3-0.1-0.6-0.2-0.9-0.4
			c-0.3-0.2-0.5-0.3-0.6-0.5c-0.2-0.2-0.2-0.4-0.2-0.6c0-0.2,0-0.4,0.2-0.6c0.1-0.2,0.3-0.4,0.6-0.5c0.3-0.2,0.6-0.3,0.9-0.4
			c0.3-0.1,0.6-0.1,1-0.1c0.3,0,0.6,0.1,1,0.1c0.3,0.1,0.6,0.2,0.9,0.4c0.3,0.2,0.5,0.3,0.6,0.5c0.2,0.2,0.2,0.4,0.2,0.6
			c0,0.2,0,0.4-0.2,0.6C500.3,122.3,500.1,122.4,499.8,122.6z M499.2,122.2c0.2-0.1,0.3-0.2,0.3-0.3c0.1-0.1,0.1-0.2,0-0.4
			c0-0.1-0.1-0.2-0.2-0.3c-0.1-0.1-0.2-0.2-0.4-0.3c-0.2-0.1-0.3-0.2-0.5-0.2c-0.2-0.1-0.4-0.1-0.6-0.1c-0.2,0-0.4,0-0.6,0
			c-0.2,0-0.4,0.1-0.6,0.2s-0.3,0.2-0.3,0.3c-0.1,0.1-0.1,0.2,0,0.4c0,0.1,0.1,0.2,0.2,0.3c0.1,0.1,0.2,0.2,0.4,0.3
			c0.2,0.1,0.3,0.2,0.5,0.2c0.2,0.1,0.4,0.1,0.6,0.1c0.2,0,0.4,0,0.6,0C498.8,122.4,499,122.3,499.2,122.2z"/>
		<path d="M498.6,119l0.8-0.4l0.5,0.3l0,0c-0.1-0.2-0.1-0.4,0-0.5c0.1-0.2,0.3-0.3,0.5-0.5c0.3-0.2,0.6-0.3,0.9-0.3
			c0.3-0.1,0.6-0.1,0.9-0.1c0.3,0,0.6,0.1,0.9,0.2c0.3,0.1,0.6,0.2,0.9,0.4c0.2,0.1,0.4,0.3,0.6,0.5c0.2,0.2,0.3,0.3,0.3,0.5
			c0,0.2,0,0.3-0.1,0.5c-0.1,0.2-0.3,0.3-0.5,0.5c-0.1,0.1-0.2,0.1-0.4,0.2c-0.1,0.1-0.3,0.1-0.4,0.1c-0.2,0-0.3,0.1-0.5,0.1
			s-0.3,0-0.5,0l0,0l1.8,1l-0.8,0.5L498.6,119z M503.2,118.5c-0.2-0.1-0.3-0.2-0.5-0.2c-0.2-0.1-0.4-0.1-0.6-0.1c-0.2,0-0.4,0-0.6,0
			c-0.2,0-0.4,0.1-0.5,0.2c-0.3,0.2-0.5,0.4-0.4,0.6c0.1,0.2,0.3,0.5,0.7,0.7c0.2,0.1,0.4,0.2,0.6,0.3c0.2,0.1,0.4,0.1,0.6,0.1
			c0.2,0,0.4,0,0.6,0c0.2,0,0.4-0.1,0.5-0.2c0.2-0.1,0.3-0.2,0.3-0.3c0.1-0.1,0.1-0.2,0-0.3c0-0.1-0.1-0.2-0.2-0.3
			C503.5,118.6,503.3,118.5,503.2,118.5z"/>
	</g>
</g>
<g>
	<g>
		<polygon opacity="0.1" fill-rule="evenodd" clip-rule="evenodd" fill="#00FF00" points="380.3,330.6 330,359.6 330,301.6 
			380.3,272.6"/>
		<g>
			<path d="M347.7,318.5l0.6-0.3v-0.3c0-0.3,0-0.5,0.1-0.7s0.1-0.4,0.2-0.5c0.1-0.1,0.2-0.3,0.3-0.4c0.1-0.1,0.2-0.2,0.4-0.3
				c0.3-0.1,0.4-0.2,0.6-0.3v0.7c-0.1,0-0.1,0-0.2,0.1c-0.1,0-0.1,0.1-0.2,0.1c-0.1,0.1-0.2,0.1-0.3,0.2c-0.1,0.1-0.1,0.2-0.1,0.4
				v0.4l0.7-0.4v0.7l-0.7,0.4v3.5l-0.8,0.5v-3.5l-0.6,0.3V318.5z"/>
			<path d="M350.2,317.1l0.7-0.4v0.8l0,0c0-0.1,0.1-0.3,0.1-0.4c0.1-0.1,0.1-0.3,0.2-0.4c0.1-0.1,0.2-0.3,0.3-0.4
				c0.1-0.1,0.2-0.2,0.4-0.3c0.1-0.1,0.2-0.1,0.2-0.1c0,0,0.1,0,0.1,0v0.9c-0.1,0-0.1,0-0.2,0.1c-0.1,0-0.1,0.1-0.2,0.1
				c-0.1,0.1-0.3,0.2-0.4,0.3c-0.1,0.1-0.2,0.3-0.3,0.5c-0.1,0.2-0.2,0.4-0.2,0.6s-0.1,0.4-0.1,0.7v2l-0.8,0.5V317.1z"/>
			<path d="M354.2,319c-0.3,0.2-0.5,0.3-0.8,0.3c-0.2,0-0.4,0-0.6-0.1c-0.2-0.1-0.3-0.3-0.4-0.5c-0.1-0.2-0.1-0.5-0.1-0.8
				c0-0.3,0-0.6,0.1-1c0.1-0.3,0.2-0.6,0.4-0.9s0.3-0.5,0.6-0.8c0.2-0.2,0.5-0.4,0.8-0.6c0.3-0.2,0.5-0.3,0.8-0.3
				c0.2,0,0.4,0,0.6,0.1c0.2,0.1,0.3,0.3,0.4,0.5c0.1,0.2,0.1,0.5,0.1,0.8c0,0.3,0,0.6-0.1,1c-0.1,0.3-0.2,0.6-0.4,0.9
				c-0.2,0.3-0.3,0.5-0.6,0.8C354.8,318.7,354.5,318.9,354.2,319z M354.2,318.3c0.2-0.1,0.3-0.2,0.5-0.4c0.1-0.2,0.2-0.3,0.3-0.5
				c0.1-0.2,0.1-0.4,0.2-0.6c0-0.2,0.1-0.4,0.1-0.6c0-0.2,0-0.3-0.1-0.5c0-0.2-0.1-0.3-0.2-0.4c-0.1-0.1-0.2-0.1-0.3-0.1
				c-0.1,0-0.3,0-0.5,0.1c-0.2,0.1-0.3,0.2-0.5,0.4c-0.1,0.2-0.2,0.3-0.3,0.5c-0.1,0.2-0.1,0.4-0.2,0.6c0,0.2-0.1,0.4-0.1,0.6
				c0,0.2,0,0.4,0.1,0.5c0,0.2,0.1,0.3,0.2,0.4c0.1,0.1,0.2,0.1,0.3,0.2C353.9,318.5,354.1,318.4,354.2,318.3z"/>
			<path d="M356.7,313.3l0.8-0.4v0.6l0,0c0.1-0.3,0.3-0.6,0.5-0.8c0.2-0.2,0.4-0.4,0.7-0.6c0.4-0.2,0.7-0.3,0.9-0.2
				c0.2,0.1,0.3,0.4,0.3,0.9v2.9l-0.8,0.5v-2.6c0-0.3-0.1-0.5-0.2-0.6c-0.1-0.1-0.3-0.1-0.5,0.1c-0.1,0.1-0.3,0.2-0.4,0.3
				c-0.1,0.1-0.2,0.2-0.3,0.4c-0.1,0.1-0.1,0.3-0.2,0.5c0,0.2-0.1,0.3-0.1,0.5v2.5l-0.8,0.5V313.3z"/>
			<path d="M360.4,311.2l0.6-0.3v-1.3l0.8-0.5v1.3l0.7-0.4v0.7l-0.7,0.4v2.2c0,0.1,0,0.2,0,0.2c0,0.1,0,0.1,0,0.1c0,0,0.1,0,0.1,0
				c0.1,0,0.1,0,0.2-0.1c0.1,0,0.1-0.1,0.2-0.1c0.1,0,0.1-0.1,0.2-0.1v0.7c-0.1,0.1-0.2,0.1-0.3,0.2c-0.1,0.1-0.2,0.1-0.3,0.2
				c-0.2,0.1-0.4,0.2-0.5,0.2c-0.1,0-0.2,0-0.3,0c-0.1,0-0.1-0.1-0.1-0.3c0-0.1,0-0.3,0-0.4v-2.5l-0.6,0.3V311.2z"/>
		</g>
	</g>
	<g>
		<polygon opacity="0.1" fill-rule="evenodd" clip-rule="evenodd" fill="#FF0000" points="330,359.6 279.7,330.6 279.7,272.6 
			330,301.6"/>
		<g>
			<path d="M299.2,313.8c0,0.3,0.1,0.5,0.3,0.7c0.2,0.2,0.3,0.4,0.6,0.5c0.1,0,0.2,0.1,0.3,0.1c0.1,0,0.2,0.1,0.3,0.1
				c0.1,0,0.2,0,0.2,0s0.1-0.1,0.1-0.2c0-0.1,0-0.2-0.1-0.4c-0.1-0.1-0.2-0.2-0.3-0.3c-0.1-0.1-0.2-0.2-0.4-0.3
				c-0.1-0.1-0.3-0.2-0.4-0.4c-0.1-0.1-0.3-0.3-0.4-0.4c-0.1-0.1-0.3-0.3-0.4-0.4c-0.1-0.2-0.2-0.3-0.3-0.5
				c-0.1-0.2-0.1-0.4-0.1-0.6c0-0.2,0-0.4,0.1-0.5c0.1-0.1,0.2-0.2,0.4-0.2c0.1,0,0.3,0,0.5,0.1c0.2,0.1,0.4,0.1,0.5,0.2
				c0.2,0.1,0.4,0.2,0.5,0.4c0.2,0.1,0.3,0.3,0.5,0.5c0.1,0.2,0.3,0.4,0.3,0.6c0.1,0.2,0.1,0.4,0.2,0.7l-0.8-0.5
				c0-0.2-0.1-0.4-0.3-0.6c-0.1-0.2-0.3-0.3-0.5-0.4c-0.1,0-0.1-0.1-0.2-0.1c-0.1,0-0.1-0.1-0.2-0.1c-0.1,0-0.1,0-0.2,0
				c0,0-0.1,0.1-0.1,0.2c0,0.1,0,0.2,0.1,0.3c0.1,0.1,0.2,0.2,0.3,0.3c0.1,0.1,0.2,0.2,0.4,0.3c0.1,0.1,0.3,0.2,0.4,0.4
				c0.1,0.1,0.3,0.2,0.4,0.4c0.1,0.1,0.3,0.3,0.4,0.4c0.1,0.2,0.2,0.3,0.3,0.5c0.1,0.2,0.1,0.4,0.1,0.6c0,0.2,0,0.4-0.1,0.5
				c-0.1,0.1-0.2,0.2-0.4,0.2c-0.2,0-0.3,0-0.5-0.1c-0.2-0.1-0.4-0.1-0.6-0.3c-0.2-0.1-0.4-0.3-0.6-0.5c-0.2-0.2-0.4-0.4-0.5-0.6
				c-0.1-0.2-0.3-0.4-0.3-0.6s-0.1-0.5-0.1-0.7L299.2,313.8z"/>
			<path d="M302.2,311.1l0.8,0.5v0.9l-0.8-0.5V311.1z M302.2,312.7l0.8,0.5v4.2l-0.8-0.5V312.7z"/>
			<path d="M307.3,319.8l-0.8-0.4v-0.6l0,0c-0.1,0.2-0.3,0.3-0.5,0.3c-0.2,0-0.4-0.1-0.7-0.2c-0.3-0.2-0.5-0.4-0.7-0.6
				c-0.2-0.2-0.4-0.5-0.5-0.8c-0.1-0.3-0.2-0.6-0.3-0.9c-0.1-0.3-0.1-0.6-0.1-0.9c0-0.4,0-0.7,0.1-0.9c0.1-0.2,0.2-0.4,0.4-0.5
				c0.1-0.1,0.3-0.1,0.5-0.1c0.2,0,0.4,0.1,0.6,0.2c0.1,0.1,0.2,0.1,0.3,0.2c0.1,0.1,0.2,0.2,0.3,0.3c0.1,0.1,0.2,0.2,0.3,0.4
				c0.1,0.1,0.2,0.3,0.2,0.4l0,0v-2.1l0.8,0.5V319.8z M304.5,316.1c0,0.2,0,0.4,0.1,0.6c0,0.2,0.1,0.4,0.2,0.6
				c0.1,0.2,0.2,0.3,0.3,0.5c0.1,0.2,0.3,0.3,0.4,0.4c0.2,0.1,0.3,0.1,0.5,0.1c0.1,0,0.2-0.1,0.3-0.2c0.1-0.1,0.1-0.2,0.2-0.4
				c0-0.2,0.1-0.3,0.1-0.5c0-0.5-0.1-0.9-0.3-1.2c-0.2-0.4-0.4-0.6-0.7-0.8c-0.2-0.1-0.3-0.2-0.5-0.1c-0.1,0-0.2,0.1-0.3,0.2
				c-0.1,0.1-0.1,0.2-0.2,0.4C304.5,315.8,304.5,316,304.5,316.1z"/>
			<path d="M308.8,318.8c0,0.2,0,0.3,0.1,0.5c0,0.2,0.1,0.3,0.2,0.5c0.1,0.2,0.2,0.3,0.3,0.4c0.1,0.1,0.3,0.3,0.4,0.4
				c0.2,0.1,0.4,0.2,0.6,0.2c0.1,0,0.2-0.1,0.3-0.3l0.8,0.4c0,0.2-0.1,0.4-0.2,0.5c-0.1,0.1-0.2,0.2-0.4,0.2c-0.1,0-0.3,0-0.5,0
				c-0.2,0-0.4-0.1-0.6-0.2c-0.3-0.2-0.5-0.4-0.8-0.6c-0.2-0.2-0.4-0.5-0.6-0.8c-0.2-0.3-0.3-0.6-0.3-0.9c-0.1-0.3-0.1-0.6-0.1-1
				c0-0.3,0-0.6,0.1-0.8c0.1-0.2,0.2-0.4,0.3-0.5c0.2-0.1,0.3-0.2,0.5-0.2c0.2,0,0.5,0.1,0.7,0.2c0.3,0.2,0.5,0.4,0.8,0.6
				c0.2,0.3,0.4,0.6,0.6,0.9c0.1,0.3,0.3,0.6,0.3,1c0.1,0.3,0.1,0.6,0.1,0.9L308.8,318.8z M310.6,319.3c0-0.2,0-0.3-0.1-0.5
				c0-0.2-0.1-0.3-0.2-0.5c-0.1-0.1-0.2-0.3-0.3-0.4c-0.1-0.1-0.2-0.2-0.4-0.3c-0.1-0.1-0.3-0.1-0.4-0.1c-0.1,0-0.2,0-0.3,0.1
				c-0.1,0.1-0.1,0.1-0.2,0.2c0,0.1-0.1,0.2-0.1,0.4L310.6,319.3z"/>
		</g>
	</g>
	<g>
		<polygon opacity="0.1" fill-rule="evenodd" clip-rule="evenodd" fill="#0000FF" points="380.3,272.6 330,301.6 279.7,272.6 
			330,243.6"/>
		<g>
			<path d="M323.1,274.7l0.6-0.3l-1.1-0.6l0.8-0.5l1.1,0.6l0.7-0.4l0.6,0.3l-0.7,0.4l1.9,1.1c0.1,0,0.2,0.1,0.2,0.1
				c0.1,0,0.1,0.1,0.2,0.1c0.1,0,0.1,0,0.2,0c0.1,0,0.2-0.1,0.2-0.1c0.1,0,0.1-0.1,0.2-0.1c0.1,0,0.1-0.1,0.1-0.1l0.6,0.4
				c-0.1,0.1-0.2,0.1-0.2,0.2c-0.1,0.1-0.2,0.1-0.2,0.2c-0.2,0.1-0.4,0.2-0.6,0.3c-0.2,0.1-0.3,0.1-0.5,0.1c-0.1,0-0.3,0-0.4-0.1
				c-0.1-0.1-0.3-0.1-0.4-0.2l-2.1-1.2l-0.6,0.3L323.1,274.7z"/>
			<path d="M331.1,274.3c-0.3,0.2-0.6,0.3-0.9,0.4c-0.3,0.1-0.6,0.1-1,0.1c-0.3,0-0.6-0.1-1-0.1c-0.3-0.1-0.6-0.2-0.9-0.4
				c-0.3-0.2-0.5-0.3-0.6-0.5c-0.2-0.2-0.2-0.4-0.2-0.6c0-0.2,0-0.4,0.2-0.6c0.1-0.2,0.3-0.4,0.6-0.5c0.3-0.2,0.6-0.3,0.9-0.4
				c0.3-0.1,0.6-0.1,1-0.1c0.3,0,0.6,0.1,1,0.1c0.3,0.1,0.6,0.2,0.9,0.4c0.3,0.2,0.5,0.3,0.6,0.5c0.2,0.2,0.2,0.4,0.2,0.6
				c0,0.2,0,0.4-0.2,0.6C331.6,274,331.4,274.2,331.1,274.3z M330.5,274c0.2-0.1,0.3-0.2,0.3-0.3c0.1-0.1,0.1-0.2,0-0.4
				c0-0.1-0.1-0.2-0.2-0.3c-0.1-0.1-0.2-0.2-0.4-0.3c-0.2-0.1-0.3-0.2-0.5-0.2c-0.2-0.1-0.4-0.1-0.6-0.1c-0.2,0-0.4,0-0.6,0
				c-0.2,0-0.4,0.1-0.6,0.2c-0.2,0.1-0.3,0.2-0.3,0.3c-0.1,0.1-0.1,0.2,0,0.4c0,0.1,0.1,0.2,0.2,0.3c0.1,0.1,0.2,0.2,0.4,0.3
				c0.2,0.1,0.3,0.2,0.5,0.2c0.2,0.1,0.4,0.1,0.6,0.1c0.2,0,0.4,0,0.6,0C330.1,274.2,330.3,274.1,330.5,274z"/>
			<path d="M329.9,270.8l0.8-0.4l0.5,0.3l0,0c-0.1-0.2-0.1-0.4,0-0.5c0.1-0.2,0.3-0.3,0.5-0.5c0.3-0.2,0.6-0.3,0.9-0.3
				c0.3-0.1,0.6-0.1,0.9-0.1c0.3,0,0.6,0.1,0.9,0.2c0.3,0.1,0.6,0.2,0.9,0.4c0.2,0.1,0.4,0.3,0.6,0.5c0.2,0.2,0.3,0.3,0.3,0.5
				c0,0.2,0,0.3-0.1,0.5c-0.1,0.2-0.3,0.3-0.5,0.5c-0.1,0.1-0.2,0.1-0.4,0.2c-0.1,0.1-0.3,0.1-0.4,0.1c-0.2,0-0.3,0.1-0.5,0.1
				s-0.3,0-0.5,0l0,0l1.8,1l-0.8,0.5L329.9,270.8z M334.5,270.2c-0.2-0.1-0.3-0.2-0.5-0.2c-0.2-0.1-0.4-0.1-0.6-0.1
				c-0.2,0-0.4,0-0.6,0c-0.2,0-0.4,0.1-0.5,0.2c-0.3,0.2-0.5,0.4-0.4,0.6c0.1,0.2,0.3,0.5,0.7,0.7c0.2,0.1,0.4,0.2,0.6,0.3
				c0.2,0.1,0.4,0.1,0.6,0.1c0.2,0,0.4,0,0.6,0c0.2,0,0.4-0.1,0.5-0.2c0.2-0.1,0.3-0.2,0.3-0.3c0.1-0.1,0.1-0.2,0-0.3
				c0-0.1-0.1-0.2-0.2-0.3C334.8,270.4,334.7,270.3,334.5,270.2z"/>
		</g>
	</g>
</g>
<g>
	<polygon opacity="0.1" fill-rule="evenodd" clip-rule="evenodd" points="548.9,178.9 498.7,207.9 448.4,178.9 498.7,149.9"/>
	<g>
		<path fill="#666666" d="M491.7,181l0.6-0.3l-1.1-0.6l0.8-0.5l1.1,0.6l0.7-0.4l0.6,0.3l-0.7,0.4l1.9,1.1c0.1,0,0.2,0.1,0.2,0.1
			c0.1,0,0.1,0.1,0.2,0.1c0.1,0,0.1,0,0.2,0c0.1,0,0.2-0.1,0.2-0.1c0.1,0,0.1-0.1,0.2-0.1c0.1,0,0.1-0.1,0.1-0.1l0.6,0.4
			c-0.1,0.1-0.2,0.1-0.2,0.2c-0.1,0.1-0.2,0.1-0.2,0.2c-0.2,0.1-0.4,0.2-0.6,0.3c-0.2,0.1-0.3,0.1-0.5,0.1c-0.1,0-0.3,0-0.4-0.1
			c-0.1-0.1-0.3-0.1-0.4-0.2l-2.1-1.2l-0.6,0.3L491.7,181z"/>
		<path fill="#666666" d="M499.8,180.6c-0.3,0.2-0.6,0.3-0.9,0.4c-0.3,0.1-0.6,0.1-1,0.1c-0.3,0-0.6-0.1-1-0.1
			c-0.3-0.1-0.6-0.2-0.9-0.4c-0.3-0.2-0.5-0.3-0.6-0.5c-0.2-0.2-0.2-0.4-0.2-0.6c0-0.2,0-0.4,0.2-0.6c0.1-0.2,0.3-0.4,0.6-0.5
			c0.3-0.2,0.6-0.3,0.9-0.4c0.3-0.1,0.6-0.1,1-0.1c0.3,0,0.6,0.1,1,0.1c0.3,0.1,0.6,0.2,0.9,0.4c0.3,0.2,0.5,0.3,0.6,0.5
			c0.2,0.2,0.2,0.4,0.2,0.6c0,0.2,0,0.4-0.2,0.6C500.3,180.3,500.1,180.5,499.8,180.6z M499.2,180.3c0.2-0.1,0.3-0.2,0.3-0.3
			c0.1-0.1,0.1-0.2,0-0.4c0-0.1-0.1-0.2-0.2-0.3c-0.1-0.1-0.2-0.2-0.4-0.3c-0.2-0.1-0.3-0.2-0.5-0.2c-0.2-0.1-0.4-0.1-0.6-0.1
			c-0.2,0-0.4,0-0.6,0c-0.2,0-0.4,0.1-0.6,0.2c-0.2,0.1-0.3,0.2-0.3,0.3c-0.1,0.1-0.1,0.2,0,0.4c0,0.1,0.1,0.2,0.2,0.3
			c0.1,0.1,0.2,0.2,0.4,0.3c0.2,0.1,0.3,0.2,0.5,0.2c0.2,0.1,0.4,0.1,0.6,0.1c0.2,0,0.4,0,0.6,0C498.8,180.4,499,180.4,499.2,180.3z
			"/>
		<path fill="#666666" d="M498.6,177l0.8-0.4l0.5,0.3l0,0c-0.1-0.2-0.1-0.4,0-0.5s0.3-0.3,0.5-0.5c0.3-0.2,0.6-0.3,0.9-0.3
			c0.3-0.1,0.6-0.1,0.9-0.1c0.3,0,0.6,0.1,0.9,0.2c0.3,0.1,0.6,0.2,0.9,0.4c0.2,0.1,0.4,0.3,0.6,0.5c0.2,0.2,0.3,0.3,0.3,0.5
			c0,0.2,0,0.3-0.1,0.5c-0.1,0.2-0.3,0.3-0.5,0.5c-0.1,0.1-0.2,0.1-0.4,0.2c-0.1,0.1-0.3,0.1-0.4,0.1c-0.2,0-0.3,0.1-0.5,0.1
			c-0.2,0-0.3,0-0.5,0l0,0l1.8,1l-0.8,0.5L498.6,177z M503.2,176.5c-0.2-0.1-0.3-0.2-0.5-0.2c-0.2-0.1-0.4-0.1-0.6-0.1
			c-0.2,0-0.4,0-0.6,0c-0.2,0-0.4,0.1-0.5,0.2c-0.3,0.2-0.5,0.4-0.4,0.6c0.1,0.2,0.3,0.5,0.7,0.7c0.2,0.1,0.4,0.2,0.6,0.3
			c0.2,0.1,0.4,0.1,0.6,0.1c0.2,0,0.4,0,0.6,0c0.2,0,0.4-0.1,0.5-0.2c0.2-0.1,0.3-0.2,0.3-0.3c0.1-0.1,0.1-0.2,0-0.3
			c0-0.1-0.1-0.2-0.2-0.3C503.5,176.7,503.3,176.6,503.2,176.5z"/>
	</g>
</g>
<g>
	<path d="M145.3,37.5c0,0.3,0.1,0.6,0.2,0.8c0.1,0.2,0.3,0.4,0.5,0.6c0.2,0.1,0.4,0.3,0.7,0.3c0.3,0.1,0.5,0.1,0.8,0.1
		c0.3,0,0.6,0,0.8-0.1c0.2-0.1,0.4-0.2,0.6-0.3c0.1-0.1,0.2-0.3,0.3-0.4c0.1-0.2,0.1-0.3,0.1-0.5c0-0.3-0.1-0.6-0.2-0.7
		c-0.1-0.2-0.3-0.3-0.5-0.3c-0.3-0.1-0.7-0.2-1.1-0.3c-0.4-0.1-0.9-0.2-1.5-0.4c-0.4-0.1-0.7-0.2-0.9-0.4c-0.2-0.2-0.4-0.3-0.6-0.5
		c-0.1-0.2-0.2-0.4-0.3-0.6c-0.1-0.2-0.1-0.4-0.1-0.7c0-0.4,0.1-0.8,0.3-1.1c0.2-0.3,0.4-0.6,0.7-0.8c0.3-0.2,0.6-0.4,1-0.5
		s0.8-0.1,1.1-0.1c0.4,0,0.9,0.1,1.3,0.2c0.4,0.1,0.7,0.3,1,0.5c0.3,0.2,0.5,0.5,0.7,0.9c0.2,0.3,0.3,0.7,0.3,1.2h-1.5
		c0-0.6-0.2-0.9-0.6-1.2s-0.8-0.3-1.3-0.3c-0.2,0-0.4,0-0.5,0.1c-0.2,0-0.4,0.1-0.5,0.2c-0.2,0.1-0.3,0.2-0.4,0.3
		c-0.1,0.1-0.2,0.3-0.2,0.5c0,0.3,0.1,0.5,0.3,0.7c0.2,0.2,0.4,0.3,0.7,0.4c0,0,0.2,0,0.4,0.1c0.2,0.1,0.5,0.1,0.7,0.2
		c0.3,0.1,0.5,0.1,0.8,0.2c0.3,0.1,0.4,0.1,0.6,0.1c0.3,0.1,0.5,0.2,0.7,0.4c0.2,0.2,0.4,0.3,0.5,0.5c0.1,0.2,0.2,0.4,0.3,0.6
		c0.1,0.2,0.1,0.4,0.1,0.7c0,0.5-0.1,0.9-0.3,1.2s-0.5,0.6-0.8,0.8c-0.3,0.2-0.7,0.4-1.1,0.5c-0.4,0.1-0.8,0.1-1.2,0.1
		c-0.5,0-0.9-0.1-1.4-0.2c-0.4-0.1-0.8-0.3-1.1-0.6s-0.6-0.6-0.8-1c-0.2-0.4-0.3-0.8-0.3-1.4H145.3z"/>
	<path d="M151.3,34.2h1v-1.9h1.4v1.9h1.2v1h-1.2v3.3c0,0.1,0,0.3,0,0.4c0,0.1,0,0.2,0.1,0.3c0,0.1,0.1,0.1,0.2,0.2
		c0.1,0,0.2,0.1,0.4,0.1c0.1,0,0.2,0,0.3,0c0.1,0,0.2,0,0.3,0v1.1c-0.2,0-0.3,0-0.4,0c-0.1,0-0.3,0-0.4,0c-0.4,0-0.6,0-0.9-0.1
		c-0.2-0.1-0.4-0.2-0.5-0.3c-0.1-0.1-0.2-0.3-0.3-0.5c0-0.2-0.1-0.4-0.1-0.7v-3.7h-1V34.2z"/>
	<path d="M157,37.6c0,0.2,0,0.5,0.1,0.7c0.1,0.2,0.2,0.4,0.3,0.6c0.1,0.2,0.3,0.3,0.5,0.4s0.5,0.1,0.7,0.1c0.4,0,0.7-0.1,1-0.3
		s0.4-0.4,0.5-0.8h1.3c-0.1,0.3-0.2,0.6-0.4,0.9c-0.2,0.3-0.4,0.5-0.6,0.7c-0.2,0.2-0.5,0.3-0.8,0.4c-0.3,0.1-0.6,0.1-1,0.1
		c-0.5,0-0.9-0.1-1.3-0.2c-0.4-0.2-0.7-0.4-1-0.7s-0.5-0.6-0.6-1s-0.2-0.8-0.2-1.3c0-0.4,0.1-0.9,0.2-1.3s0.3-0.7,0.6-1
		c0.3-0.3,0.6-0.5,0.9-0.7s0.8-0.3,1.2-0.3c0.5,0,0.9,0.1,1.3,0.3c0.4,0.2,0.7,0.5,1,0.8s0.4,0.7,0.6,1.2s0.1,0.9,0.1,1.4H157z
		 M160.2,36.7c0-0.2-0.1-0.4-0.1-0.6c-0.1-0.2-0.2-0.4-0.3-0.5s-0.3-0.3-0.5-0.4c-0.2-0.1-0.4-0.1-0.6-0.1c-0.2,0-0.5,0-0.7,0.1
		c-0.2,0.1-0.4,0.2-0.5,0.3c-0.1,0.1-0.3,0.3-0.3,0.5s-0.1,0.4-0.1,0.6H160.2z"/>
	<path d="M162.6,34.2h1.3V35h0c0.2-0.4,0.5-0.6,0.8-0.8c0.3-0.2,0.7-0.2,1.1-0.2c0.5,0,0.9,0.1,1.3,0.3c0.4,0.2,0.7,0.4,0.9,0.7
		c0.2,0.3,0.4,0.6,0.5,1s0.2,0.8,0.2,1.3c0,0.4-0.1,0.8-0.2,1.2c-0.1,0.4-0.3,0.7-0.5,1c-0.2,0.3-0.5,0.5-0.8,0.7s-0.7,0.3-1.2,0.3
		c-0.2,0-0.4,0-0.6-0.1c-0.2,0-0.4-0.1-0.6-0.2c-0.2-0.1-0.4-0.2-0.5-0.3c-0.2-0.1-0.3-0.3-0.4-0.4h0v3.1h-1.4V34.2z M167.4,37.3
		c0-0.3,0-0.6-0.1-0.8c-0.1-0.3-0.2-0.5-0.3-0.7c-0.1-0.2-0.3-0.4-0.5-0.5c-0.2-0.1-0.5-0.2-0.7-0.2c-0.6,0-1,0.2-1.3,0.6
		s-0.4,0.9-0.4,1.6c0,0.3,0,0.6,0.1,0.9c0.1,0.3,0.2,0.5,0.3,0.7c0.2,0.2,0.3,0.3,0.5,0.5c0.2,0.1,0.5,0.2,0.7,0.2
		c0.3,0,0.6-0.1,0.8-0.2c0.2-0.1,0.4-0.3,0.5-0.5c0.1-0.2,0.2-0.4,0.3-0.7C167.4,37.8,167.4,37.5,167.4,37.3z"/>
	<path d="M173.2,33.4c0.3,0,0.6,0,0.8-0.1c0.3,0,0.5-0.1,0.7-0.2c0.2-0.1,0.4-0.3,0.6-0.4c0.2-0.2,0.3-0.4,0.3-0.6h1.1v8.4h-1.5
		v-5.9h-2.1V33.4z"/>
</g>
<g>
	<path d="M314,37.5c0,0.3,0.1,0.6,0.2,0.8c0.1,0.2,0.3,0.4,0.5,0.6c0.2,0.1,0.4,0.3,0.7,0.3c0.3,0.1,0.5,0.1,0.8,0.1
		c0.3,0,0.6,0,0.8-0.1c0.2-0.1,0.4-0.2,0.6-0.3c0.1-0.1,0.2-0.3,0.3-0.4c0.1-0.2,0.1-0.3,0.1-0.5c0-0.3-0.1-0.6-0.2-0.7
		c-0.1-0.2-0.3-0.3-0.5-0.3c-0.3-0.1-0.7-0.2-1.1-0.3c-0.4-0.1-0.9-0.2-1.5-0.4c-0.4-0.1-0.7-0.2-0.9-0.4c-0.2-0.2-0.4-0.3-0.6-0.5
		c-0.1-0.2-0.2-0.4-0.3-0.6c-0.1-0.2-0.1-0.4-0.1-0.7c0-0.4,0.1-0.8,0.3-1.1s0.4-0.6,0.7-0.8c0.3-0.2,0.6-0.4,1-0.5
		c0.4-0.1,0.8-0.1,1.1-0.1c0.4,0,0.9,0.1,1.3,0.2c0.4,0.1,0.7,0.3,1,0.5c0.3,0.2,0.5,0.5,0.7,0.9c0.2,0.3,0.3,0.7,0.3,1.2h-1.5
		c0-0.6-0.2-0.9-0.6-1.2s-0.8-0.3-1.3-0.3c-0.2,0-0.4,0-0.5,0.1c-0.2,0-0.4,0.1-0.5,0.2s-0.3,0.2-0.4,0.3c-0.1,0.1-0.2,0.3-0.2,0.5
		c0,0.3,0.1,0.5,0.3,0.7c0.2,0.2,0.4,0.3,0.7,0.4c0,0,0.2,0,0.4,0.1c0.2,0.1,0.5,0.1,0.7,0.2c0.3,0.1,0.5,0.1,0.8,0.2
		s0.4,0.1,0.6,0.1c0.3,0.1,0.5,0.2,0.7,0.4c0.2,0.2,0.4,0.3,0.5,0.5c0.1,0.2,0.2,0.4,0.3,0.6c0.1,0.2,0.1,0.4,0.1,0.7
		c0,0.5-0.1,0.9-0.3,1.2c-0.2,0.3-0.5,0.6-0.8,0.8c-0.3,0.2-0.7,0.4-1.1,0.5c-0.4,0.1-0.8,0.1-1.2,0.1c-0.5,0-0.9-0.1-1.4-0.2
		c-0.4-0.1-0.8-0.3-1.1-0.6s-0.6-0.6-0.8-1c-0.2-0.4-0.3-0.8-0.3-1.4H314z"/>
	<path d="M320,34.2h1v-1.9h1.4v1.9h1.2v1h-1.2v3.3c0,0.1,0,0.3,0,0.4s0,0.2,0.1,0.3c0,0.1,0.1,0.1,0.2,0.2c0.1,0,0.2,0.1,0.4,0.1
		c0.1,0,0.2,0,0.3,0s0.2,0,0.3,0v1.1c-0.2,0-0.3,0-0.4,0c-0.1,0-0.3,0-0.4,0c-0.4,0-0.7,0-0.9-0.1c-0.2-0.1-0.4-0.2-0.5-0.3
		c-0.1-0.1-0.2-0.3-0.3-0.5c0-0.2-0.1-0.4-0.1-0.7v-3.7h-1V34.2z"/>
	<path d="M325.7,37.6c0,0.2,0,0.5,0.1,0.7c0.1,0.2,0.2,0.4,0.3,0.6c0.1,0.2,0.3,0.3,0.5,0.4c0.2,0.1,0.5,0.1,0.7,0.1
		c0.4,0,0.7-0.1,1-0.3s0.4-0.4,0.5-0.8h1.3c-0.1,0.3-0.2,0.6-0.4,0.9s-0.4,0.5-0.6,0.7c-0.2,0.2-0.5,0.3-0.8,0.4
		c-0.3,0.1-0.6,0.1-1,0.1c-0.5,0-0.9-0.1-1.3-0.2c-0.4-0.2-0.7-0.4-1-0.7s-0.5-0.6-0.6-1c-0.1-0.4-0.2-0.8-0.2-1.3
		c0-0.4,0.1-0.9,0.2-1.3c0.1-0.4,0.3-0.7,0.6-1s0.6-0.5,0.9-0.7c0.4-0.2,0.8-0.3,1.2-0.3c0.5,0,0.9,0.1,1.3,0.3s0.7,0.5,1,0.8
		s0.4,0.7,0.6,1.2c0.1,0.4,0.1,0.9,0.1,1.4H325.7z M328.9,36.7c0-0.2-0.1-0.4-0.1-0.6c-0.1-0.2-0.2-0.4-0.3-0.5
		c-0.1-0.1-0.3-0.3-0.5-0.4c-0.2-0.1-0.4-0.1-0.6-0.1c-0.2,0-0.5,0-0.7,0.1c-0.2,0.1-0.4,0.2-0.5,0.3c-0.1,0.1-0.3,0.3-0.3,0.5
		s-0.1,0.4-0.1,0.6H328.9z"/>
	<path d="M331.3,34.2h1.3V35h0c0.2-0.4,0.5-0.6,0.8-0.8c0.3-0.2,0.7-0.2,1.1-0.2c0.5,0,0.9,0.1,1.3,0.3c0.4,0.2,0.7,0.4,0.9,0.7
		c0.2,0.3,0.4,0.6,0.5,1c0.1,0.4,0.2,0.8,0.2,1.3c0,0.4-0.1,0.8-0.2,1.2c-0.1,0.4-0.3,0.7-0.5,1c-0.2,0.3-0.5,0.5-0.8,0.7
		s-0.7,0.3-1.2,0.3c-0.2,0-0.4,0-0.6-0.1c-0.2,0-0.4-0.1-0.6-0.2c-0.2-0.1-0.4-0.2-0.5-0.3c-0.2-0.1-0.3-0.3-0.4-0.4h0v3.1h-1.4
		V34.2z M336.1,37.3c0-0.3,0-0.6-0.1-0.8c-0.1-0.3-0.2-0.5-0.3-0.7c-0.1-0.2-0.3-0.4-0.5-0.5c-0.2-0.1-0.5-0.2-0.7-0.2
		c-0.6,0-1,0.2-1.3,0.6c-0.3,0.4-0.4,0.9-0.4,1.6c0,0.3,0,0.6,0.1,0.9s0.2,0.5,0.3,0.7s0.3,0.3,0.5,0.5c0.2,0.1,0.5,0.2,0.7,0.2
		c0.3,0,0.6-0.1,0.8-0.2s0.4-0.3,0.5-0.5c0.1-0.2,0.2-0.4,0.3-0.7C336.1,37.8,336.1,37.5,336.1,37.3z"/>
	<path d="M347.4,40.4h-5.7c0-0.7,0.2-1.3,0.5-1.8c0.3-0.5,0.8-1,1.3-1.4c0.3-0.2,0.6-0.4,0.9-0.6c0.3-0.2,0.6-0.4,0.8-0.6
		c0.2-0.2,0.5-0.4,0.6-0.7s0.2-0.5,0.3-0.9c0-0.2,0-0.3-0.1-0.5c0-0.2-0.1-0.3-0.2-0.5s-0.2-0.3-0.4-0.4s-0.4-0.2-0.7-0.2
		c-0.3,0-0.5,0.1-0.7,0.2s-0.3,0.3-0.4,0.4s-0.2,0.4-0.2,0.7c-0.1,0.3-0.1,0.5-0.1,0.8h-1.4c0-0.5,0.1-0.9,0.2-1.3
		c0.1-0.4,0.3-0.7,0.6-1s0.5-0.5,0.9-0.7c0.4-0.2,0.8-0.2,1.2-0.2c0.5,0,0.9,0.1,1.3,0.3s0.6,0.4,0.8,0.6c0.2,0.3,0.4,0.5,0.4,0.8
		c0.1,0.3,0.1,0.6,0.1,0.9c0,0.3-0.1,0.6-0.2,0.9c-0.1,0.3-0.2,0.5-0.4,0.8s-0.4,0.4-0.6,0.6c-0.2,0.2-0.5,0.4-0.7,0.5
		c-0.2,0.2-0.5,0.3-0.7,0.5s-0.5,0.3-0.7,0.5c-0.2,0.2-0.4,0.3-0.5,0.5c-0.2,0.2-0.3,0.3-0.3,0.5h4.1V40.4z"/>
</g>
<g>
	<path d="M313.4,368h4.1c0.9,0,1.7,0.2,2.1,0.6s0.7,1,0.7,1.7c0,0.4-0.1,0.7-0.2,1c-0.1,0.3-0.3,0.5-0.4,0.6
		c-0.2,0.2-0.3,0.3-0.5,0.4c-0.2,0.1-0.3,0.1-0.3,0.1v0c0.1,0,0.3,0.1,0.4,0.1c0.1,0.1,0.3,0.2,0.4,0.3c0.1,0.1,0.2,0.3,0.3,0.5
		c0.1,0.2,0.1,0.5,0.1,0.8c0,0.5,0,1,0.1,1.4s0.2,0.7,0.4,0.9H319c-0.1-0.2-0.2-0.4-0.2-0.6c0-0.2,0-0.4,0-0.6c0-0.4,0-0.7-0.1-1
		c0-0.3-0.1-0.5-0.3-0.7c-0.1-0.2-0.3-0.3-0.5-0.4c-0.2-0.1-0.5-0.1-0.8-0.1h-2.2v3.5h-1.5V368z M314.9,371.9h2.5
		c0.5,0,0.8-0.1,1.1-0.3c0.2-0.2,0.4-0.6,0.4-1c0-0.3,0-0.5-0.1-0.7s-0.2-0.3-0.3-0.4c-0.1-0.1-0.3-0.2-0.5-0.2c-0.2,0-0.4,0-0.6,0
		h-2.4V371.9z"/>
	<path d="M322.7,373.8c0,0.2,0,0.5,0.1,0.7c0.1,0.2,0.2,0.4,0.3,0.6c0.1,0.2,0.3,0.3,0.5,0.4c0.2,0.1,0.5,0.1,0.7,0.1
		c0.4,0,0.7-0.1,1-0.3s0.4-0.4,0.5-0.8h1.3c-0.1,0.3-0.2,0.6-0.4,0.9c-0.2,0.3-0.4,0.5-0.6,0.7s-0.5,0.3-0.8,0.4s-0.6,0.1-1,0.1
		c-0.5,0-0.9-0.1-1.3-0.2s-0.7-0.4-1-0.7s-0.5-0.6-0.6-1c-0.1-0.4-0.2-0.8-0.2-1.3c0-0.4,0.1-0.9,0.2-1.3c0.1-0.4,0.3-0.7,0.6-1
		c0.3-0.3,0.6-0.5,0.9-0.7c0.4-0.2,0.8-0.3,1.2-0.3c0.5,0,0.9,0.1,1.3,0.3c0.4,0.2,0.7,0.5,1,0.8s0.4,0.7,0.6,1.2
		c0.1,0.4,0.1,0.9,0.1,1.3H322.7z M325.9,372.9c0-0.2-0.1-0.4-0.1-0.6c-0.1-0.2-0.2-0.4-0.3-0.5s-0.3-0.3-0.5-0.4
		c-0.2-0.1-0.4-0.1-0.6-0.1c-0.2,0-0.5,0-0.7,0.1c-0.2,0.1-0.4,0.2-0.5,0.3c-0.1,0.1-0.3,0.3-0.3,0.5s-0.1,0.4-0.1,0.6H325.9z"/>
	<path d="M329.3,374.5c0,0.4,0.2,0.7,0.5,0.8c0.3,0.2,0.6,0.2,0.9,0.2c0.1,0,0.3,0,0.4,0c0.2,0,0.3-0.1,0.5-0.1
		c0.1-0.1,0.3-0.1,0.4-0.2c0.1-0.1,0.1-0.2,0.1-0.4c0-0.2-0.1-0.3-0.2-0.4c-0.1-0.1-0.3-0.2-0.5-0.3c-0.2-0.1-0.4-0.1-0.6-0.2
		c-0.2,0-0.5-0.1-0.7-0.2c-0.3-0.1-0.5-0.1-0.7-0.2c-0.2-0.1-0.4-0.2-0.6-0.3c-0.2-0.1-0.3-0.3-0.5-0.5c-0.1-0.2-0.2-0.5-0.2-0.8
		c0-0.3,0.1-0.6,0.2-0.8c0.2-0.2,0.4-0.4,0.6-0.6c0.3-0.1,0.5-0.2,0.8-0.3c0.3-0.1,0.6-0.1,0.9-0.1c0.3,0,0.6,0,0.9,0.1
		c0.3,0.1,0.6,0.2,0.8,0.3c0.2,0.2,0.4,0.4,0.6,0.6c0.2,0.2,0.3,0.5,0.3,0.9h-1.4c-0.1-0.3-0.2-0.5-0.5-0.7
		c-0.2-0.1-0.5-0.2-0.8-0.2c-0.1,0-0.2,0-0.3,0c-0.1,0-0.3,0-0.4,0.1s-0.2,0.1-0.3,0.2s-0.1,0.2-0.1,0.3c0,0.2,0.1,0.3,0.2,0.4
		c0.1,0.1,0.3,0.2,0.5,0.3c0.2,0.1,0.4,0.1,0.6,0.2c0.2,0,0.5,0.1,0.7,0.2c0.2,0.1,0.5,0.1,0.7,0.2s0.5,0.2,0.6,0.3
		c0.2,0.1,0.3,0.3,0.5,0.5c0.1,0.2,0.2,0.5,0.2,0.8c0,0.4-0.1,0.7-0.3,0.9s-0.4,0.5-0.7,0.6c-0.3,0.2-0.6,0.3-0.9,0.3
		c-0.3,0.1-0.7,0.1-1,0.1c-0.4,0-0.8,0-1.1-0.1s-0.6-0.2-0.9-0.4c-0.2-0.2-0.4-0.4-0.6-0.7c-0.1-0.3-0.2-0.6-0.2-1H329.3z"/>
	<path d="M340,376.5h-1.3v-0.9h0c-0.2,0.3-0.4,0.6-0.8,0.8c-0.3,0.2-0.7,0.3-1,0.3c-0.8,0-1.4-0.2-1.8-0.6c-0.4-0.4-0.5-1-0.5-1.8
		v-3.9h1.4v3.8c0,0.5,0.1,0.9,0.3,1.2c0.2,0.2,0.5,0.3,0.9,0.3c0.3,0,0.5,0,0.7-0.1s0.3-0.2,0.5-0.4c0.1-0.1,0.2-0.3,0.3-0.5
		c0.1-0.2,0.1-0.4,0.1-0.7v-3.6h1.4V376.5z"/>
	<path d="M341.4,368h1.4v8.6h-1.4V368z"/>
	<path d="M343.7,370.3h1v-1.9h1.4v1.9h1.2v1h-1.2v3.3c0,0.1,0,0.3,0,0.4c0,0.1,0,0.2,0.1,0.3c0,0.1,0.1,0.1,0.2,0.2s0.2,0.1,0.4,0.1
		c0.1,0,0.2,0,0.3,0c0.1,0,0.2,0,0.3,0v1.1c-0.2,0-0.3,0-0.4,0c-0.1,0-0.3,0-0.4,0c-0.4,0-0.6,0-0.9-0.1c-0.2-0.1-0.4-0.2-0.5-0.3
		s-0.2-0.3-0.3-0.5s-0.1-0.4-0.1-0.7v-3.7h-1V370.3z"/>
</g>
<g>
	<path d="M482.7,37.5c0,0.3,0.1,0.6,0.2,0.8c0.1,0.2,0.3,0.4,0.5,0.6c0.2,0.1,0.4,0.3,0.7,0.3c0.3,0.1,0.5,0.1,0.8,0.1
		c0.3,0,0.6,0,0.8-0.1c0.2-0.1,0.4-0.2,0.6-0.3c0.1-0.1,0.2-0.3,0.3-0.4c0.1-0.2,0.1-0.3,0.1-0.5c0-0.3-0.1-0.6-0.2-0.7
		c-0.1-0.2-0.3-0.3-0.5-0.3c-0.3-0.1-0.7-0.2-1.1-0.3c-0.4-0.1-0.9-0.2-1.5-0.4c-0.4-0.1-0.7-0.2-0.9-0.4c-0.2-0.2-0.4-0.3-0.6-0.5
		c-0.1-0.2-0.2-0.4-0.3-0.6c-0.1-0.2-0.1-0.4-0.1-0.7c0-0.4,0.1-0.8,0.3-1.1c0.2-0.3,0.4-0.6,0.7-0.8c0.3-0.2,0.6-0.4,1-0.5
		s0.8-0.1,1.1-0.1c0.4,0,0.9,0.1,1.3,0.2c0.4,0.1,0.7,0.3,1,0.5c0.3,0.2,0.5,0.5,0.7,0.9c0.2,0.3,0.3,0.7,0.3,1.2h-1.5
		c0-0.6-0.2-0.9-0.6-1.2s-0.8-0.3-1.3-0.3c-0.2,0-0.4,0-0.5,0.1c-0.2,0-0.4,0.1-0.5,0.2c-0.2,0.1-0.3,0.2-0.4,0.3
		c-0.1,0.1-0.2,0.3-0.2,0.5c0,0.3,0.1,0.5,0.3,0.7c0.2,0.2,0.4,0.3,0.7,0.4c0,0,0.2,0,0.4,0.1c0.2,0.1,0.5,0.1,0.7,0.2
		c0.3,0.1,0.5,0.1,0.8,0.2c0.3,0.1,0.4,0.1,0.6,0.1c0.3,0.1,0.5,0.2,0.7,0.4c0.2,0.2,0.4,0.3,0.5,0.5c0.1,0.2,0.2,0.4,0.3,0.6
		c0.1,0.2,0.1,0.4,0.1,0.7c0,0.5-0.1,0.9-0.3,1.2s-0.5,0.6-0.8,0.8c-0.3,0.2-0.7,0.4-1.1,0.5c-0.4,0.1-0.8,0.1-1.2,0.1
		c-0.5,0-0.9-0.1-1.4-0.2c-0.4-0.1-0.8-0.3-1.1-0.6s-0.6-0.6-0.8-1c-0.2-0.4-0.3-0.8-0.3-1.4H482.7z"/>
	<path d="M488.6,34.2h1v-1.9h1.4v1.9h1.2v1H491v3.3c0,0.1,0,0.3,0,0.4c0,0.1,0,0.2,0.1,0.3c0,0.1,0.1,0.1,0.2,0.2
		c0.1,0,0.2,0.1,0.4,0.1c0.1,0,0.2,0,0.3,0c0.1,0,0.2,0,0.3,0v1.1c-0.2,0-0.3,0-0.4,0c-0.1,0-0.3,0-0.4,0c-0.4,0-0.6,0-0.9-0.1
		c-0.2-0.1-0.4-0.2-0.5-0.3c-0.1-0.1-0.2-0.3-0.3-0.5c0-0.2-0.1-0.4-0.1-0.7v-3.7h-1V34.2z"/>
	<path d="M494.3,37.6c0,0.2,0,0.5,0.1,0.7c0.1,0.2,0.2,0.4,0.3,0.6c0.1,0.2,0.3,0.3,0.5,0.4s0.5,0.1,0.7,0.1c0.4,0,0.7-0.1,1-0.3
		s0.4-0.4,0.5-0.8h1.3c-0.1,0.3-0.2,0.6-0.4,0.9c-0.2,0.3-0.4,0.5-0.6,0.7c-0.2,0.2-0.5,0.3-0.8,0.4c-0.3,0.1-0.6,0.1-1,0.1
		c-0.5,0-0.9-0.1-1.3-0.2c-0.4-0.2-0.7-0.4-1-0.7s-0.5-0.6-0.6-1s-0.2-0.8-0.2-1.3c0-0.4,0.1-0.9,0.2-1.3s0.3-0.7,0.6-1
		c0.3-0.3,0.6-0.5,0.9-0.7s0.8-0.3,1.2-0.3c0.5,0,0.9,0.1,1.3,0.3c0.4,0.2,0.7,0.5,1,0.8s0.4,0.7,0.6,1.2s0.1,0.9,0.1,1.4H494.3z
		 M497.5,36.7c0-0.2-0.1-0.4-0.1-0.6c-0.1-0.2-0.2-0.4-0.3-0.5s-0.3-0.3-0.5-0.4c-0.2-0.1-0.4-0.1-0.6-0.1c-0.2,0-0.5,0-0.7,0.1
		c-0.2,0.1-0.4,0.2-0.5,0.3c-0.1,0.1-0.3,0.3-0.3,0.5s-0.1,0.4-0.1,0.6H497.5z"/>
	<path d="M500,34.2h1.3V35h0c0.2-0.4,0.5-0.6,0.8-0.8c0.3-0.2,0.7-0.2,1.1-0.2c0.5,0,0.9,0.1,1.3,0.3c0.4,0.2,0.7,0.4,0.9,0.7
		c0.2,0.3,0.4,0.6,0.5,1s0.2,0.8,0.2,1.3c0,0.4-0.1,0.8-0.2,1.2c-0.1,0.4-0.3,0.7-0.5,1c-0.2,0.3-0.5,0.5-0.8,0.7s-0.7,0.3-1.2,0.3
		c-0.2,0-0.4,0-0.6-0.1c-0.2,0-0.4-0.1-0.6-0.2c-0.2-0.1-0.4-0.2-0.5-0.3c-0.2-0.1-0.3-0.3-0.4-0.4h0v3.1H500V34.2z M504.8,37.3
		c0-0.3,0-0.6-0.1-0.8c-0.1-0.3-0.2-0.5-0.3-0.7c-0.1-0.2-0.3-0.4-0.5-0.5c-0.2-0.1-0.5-0.2-0.7-0.2c-0.6,0-1,0.2-1.3,0.6
		s-0.4,0.9-0.4,1.6c0,0.3,0,0.6,0.1,0.9c0.1,0.3,0.2,0.5,0.3,0.7c0.2,0.2,0.3,0.3,0.5,0.5c0.2,0.1,0.5,0.2,0.7,0.2
		c0.3,0,0.6-0.1,0.8-0.2c0.2-0.1,0.4-0.3,0.5-0.5c0.1-0.2,0.2-0.4,0.3-0.7C504.7,37.8,504.8,37.5,504.8,37.3z"/>
	<path d="M512.6,35.4c0.2,0,0.4,0,0.7,0c0.2,0,0.4-0.1,0.6-0.2c0.2-0.1,0.3-0.2,0.4-0.4c0.1-0.2,0.2-0.4,0.2-0.6
		c0-0.4-0.1-0.6-0.4-0.9c-0.2-0.2-0.6-0.3-0.9-0.3c-0.2,0-0.4,0-0.6,0.1c-0.2,0.1-0.3,0.2-0.4,0.4c-0.1,0.2-0.2,0.3-0.3,0.6
		c-0.1,0.2-0.1,0.4-0.1,0.6h-1.4c0-0.4,0.1-0.8,0.2-1.1c0.1-0.3,0.3-0.6,0.6-0.9c0.2-0.3,0.5-0.5,0.9-0.6s0.7-0.2,1.1-0.2
		c0.3,0,0.7,0,1,0.1c0.3,0.1,0.6,0.2,0.9,0.4s0.5,0.4,0.6,0.7c0.2,0.3,0.2,0.6,0.2,1c0,0.4-0.1,0.8-0.3,1.1
		c-0.2,0.3-0.5,0.5-0.9,0.7v0c0.5,0.1,0.9,0.3,1.1,0.7c0.3,0.4,0.4,0.8,0.4,1.4c0,0.4-0.1,0.8-0.2,1.1c-0.2,0.3-0.4,0.6-0.6,0.8
		c-0.3,0.2-0.6,0.4-0.9,0.5c-0.4,0.1-0.7,0.2-1.1,0.2c-0.5,0-0.9-0.1-1.3-0.2s-0.7-0.3-0.9-0.6c-0.2-0.3-0.4-0.6-0.6-0.9
		s-0.2-0.8-0.2-1.2h1.4c0,0.5,0.1,0.9,0.4,1.3c0.3,0.3,0.7,0.5,1.2,0.5c0.5,0,0.8-0.1,1.1-0.4c0.3-0.3,0.5-0.6,0.5-1.1
		c0-0.3-0.1-0.6-0.2-0.8s-0.3-0.3-0.5-0.4s-0.4-0.2-0.7-0.2s-0.5,0-0.8,0V35.4z"/>
</g>
</svg>
