<svg xmlns="http://www.w3.org/2000/svg" viewBox="0 0 660 400">
    <style>
        .side {
            transform-origin: 50% 50%;
            transform: translate(-50%, -50%) matrix(0.707107, 0.408248, 0, 0.816496, 0, 0) scale(1.22474) translate(50%, -50%)
        }
    </style>
    <line x1="330" y1="54.1757" x2="330" y2="221.6667" style="fill:none;stroke:#000;stroke-miterlimit:10"/>
    <polygon points="325.014 55.635 330 47 334.986 55.635 325.014 55.635"/>
    <line x1="475.0515" y1="305.412" x2="330.0001" y2="221.6665" style="fill:none;stroke:#000;stroke-miterlimit:10"/>
    <polygon points="476.281 300.365 481.266 309 471.295 309 476.281 300.365"/>
    <line x1="481.2658" y1="308.9999" x2="330.0001" y2="221.6665" style="fill:#fff"/>
    <line x1="184.9485" y1="305.4121" x2="330" y2="221.6667" style="fill:none;stroke:#000;stroke-miterlimit:10"/>
    <polygon points="188.705 309.001 178.734 309 183.719 300.365 188.705 309.001"/>
    <line x1="178.7342" y1="309" x2="330" y2="221.6667" style="fill:#fff"/>
    <path d="M441.6993,270.2444l1.4825.8559v1.6006l.0279.0161a1.0263,1.0263,0,0,1,.27-.5,1.2658,1.2658,0,0,1,.4855-.3038,1.3826,1.3826,0,0,1,.63-.06,1.828,1.828,0,0,1,.7071.248c.1843.1065.312.1851.38.2354s.1413.103.2148.1553v1.7607c-.1107-.0854-.2241-.1694-.3391-.2515s-.2283-.1562-.3391-.22a1.7123,1.7123,0,0,0-.7553-.2514.8767.8767,0,0,0-.6165.187,1.3726,1.3726,0,0,0-.4161.6484,3.5094,3.5094,0,0,0-.1522,1.1279v3.9366l-1.58-.9122Z"/>
    <path d="M446.618,269.9329l1.58.9121v1.7275l-1.58-.9121Zm0,3.1513,1.58.9121v8.2725l-1.58-.9121Z"/>
    <path d="M456.54,286.6526q0,1.872-.9083,2.2676t-2.6116-.5879a8.4346,8.4346,0,0,1-1.0876-.7559,6.5713,6.5713,0,0,1-.998-1.0078,5.8541,5.8541,0,0,1-.7552-1.2358,4.173,4.173,0,0,1-.36-1.4248l1.58.9121a2.6992,2.6992,0,0,0,.236.7612,2.8977,2.8977,0,0,0,.3949.603,2.8456,2.8456,0,0,0,.5058.4678,6.6474,6.6474,0,0,0,.5818.377q.9554.5514,1.4.2631.4428-.2878.4432-1.3115v-1.2646l-.0279-.0161a1.1747,1.1747,0,0,1-.9075.5483,2.107,2.107,0,0,1-1.24-.3311,5.6867,5.6867,0,0,1-1.4623-1.1889,6.7038,6.7038,0,0,1-.998-1.52,7.394,7.394,0,0,1-.5751-1.7149,8.961,8.961,0,0,1-.18-1.7846,4.3361,4.3361,0,0,1,.2224-1.4556,2.0435,2.0435,0,0,1,.6369-.9517,1.54,1.54,0,0,1,1.0182-.3164,2.9134,2.9134,0,0,1,1.365.4522,4.8853,4.8853,0,0,1,1.2475,1.0483,4.6362,4.6362,0,0,1,.8728,1.5352l.0279.0161v-1.1358l1.58.9121Zm-3.5064-3.0322a1.5651,1.5651,0,0,0,.8939.268.8538.8538,0,0,0,.5963-.312,1.7426,1.7426,0,0,0,.3323-.7358,4.4717,4.4717,0,0,0,.1041-.9878,5.63,5.63,0,0,0-.1108-1.0884,5.0949,5.0949,0,0,0-.34-1.0762,3.9458,3.9458,0,0,0-.5954-.9511,3.2763,3.2763,0,0,0-.88-.7329,1.471,1.471,0,0,0-.8863-.2559.86.86,0,0,0-.5819.3281,1.7613,1.7613,0,0,0-.3188.7437,4.7413,4.7413,0,0,0-.0973.977,5.4349,5.4349,0,0,0,.1108,1.064,5.1206,5.1206,0,0,0,.34,1.0674,4.365,4.365,0,0,0,.5818.96A2.9825,2.9825,0,0,0,453.0337,283.62Z"/>
    <path d="M458.1326,276.5808l1.58.9121v4.2393l.0279.0161a1.1262,1.1262,0,0,1,.866-.4365,2.2612,2.2612,0,0,1,1.2813.3647,5.2009,5.2009,0,0,1,1.8572,1.7754,4.66,4.66,0,0,1,.6783,2.5039v5.6807l-1.579-.9116v-5.2012a3.7145,3.7145,0,0,0-.36-1.624,2.61,2.61,0,0,0-1.0394-1.04,1.6525,1.6525,0,0,0-.7206-.248.7951.7951,0,0,0-.54.1528,1.0887,1.0887,0,0,0-.3468.4951,2.187,2.187,0,0,0-.1243.7759v4.8808l-1.58-.9121Z"/>
    <path d="M465.3652,283.908l1.1917.6879v-2.4794l1.58.9121v2.48l1.4267.8237v1.36l-1.4267-.8237v4.416c0,.1914.0068.3613.02.5078a1.4524,1.4524,0,0,0,.0973.4077,1.1042,1.1042,0,0,0,.2283.3477,1.8608,1.8608,0,0,0,.4161.3125q.1662.096.3324.1831a1.705,1.705,0,0,0,.3323.1372v1.4072c-.175-.0795-.3459-.1577-.5125-.2324a5.6257,5.6257,0,0,1-.5125-.2627,5.5023,5.5023,0,0,1-1.0047-.7168,3.0149,3.0149,0,0,1-.5954-.7441,2.5824,2.5824,0,0,1-.2909-.832,6.6619,6.6619,0,0,1-.0905-.9644v-4.8789l-1.1917-.688Z"/>
    <path d="M196.0494,279.5767l1.58-.9122v11.4239l-1.58.9121Z"/>
    <path d="M200.58,284.7207a2.9314,2.9314,0,0,0,.1175.86,1.1959,1.1959,0,0,0,.3536.5791.8591.8591,0,0,0,.5962.1928,1.8881,1.8881,0,0,0,.8593-.2968,3.5111,3.5111,0,0,0,1.1155-.9878,4.1257,4.1257,0,0,0,.63-1.395l1.4961-.8638a6.2081,6.2081,0,0,1-.4288,1.4468,7.32,7.32,0,0,1-.7349,1.3129,6.9227,6.9227,0,0,1-.9624,1.0987,6.2721,6.2721,0,0,1-1.1155.8286,3.7241,3.7241,0,0,1-1.497.5439,1.612,1.612,0,0,1-1.1011-.26,1.9094,1.9094,0,0,1-.6791-.9849A5.0592,5.0592,0,0,1,199,285.168a7.1964,7.1964,0,0,1,.2427-1.812,8.4113,8.4113,0,0,1,.6926-1.7915,7.916,7.916,0,0,1,1.0885-1.5806,5.77,5.77,0,0,1,1.44-1.1831,2.92,2.92,0,0,1,1.5172-.4678,1.6308,1.6308,0,0,1,1.1155.436,2.4008,2.4008,0,0,1,.6445,1.1709,4.9287,4.9287,0,0,1,.104,1.7408Zm3.6857-3.3281a2.3794,2.3794,0,0,0-.159-.74,1.0861,1.0861,0,0,0-.36-.4882.9105.9105,0,0,0-.554-.1607,1.5347,1.5347,0,0,0-.7281.2368,3.2664,3.2664,0,0,0-.7544.6035,4.0773,4.0773,0,0,0-.5827.8013,4.5909,4.5909,0,0,0-.3874.919,3.6851,3.6851,0,0,0-.16.9565Z"/>
    <path d="M206.3445,276.7842l1.1781-.68v-.6885a5.0246,5.0246,0,0,1,.1666-1.3676,3.6557,3.6557,0,0,1,.4431-1.0079,3.1663,3.1663,0,0,1,.63-.7153,5.4212,5.4212,0,0,1,.7417-.5161,5.226,5.226,0,0,1,1.1088-.5288v1.4238a2.4094,2.4094,0,0,0-.3256.1157,4.4193,4.4193,0,0,0-.4094.2129,1.7967,1.7967,0,0,0-.5472.4917,1.3439,1.3439,0,0,0-.2283.8194v.8486l1.3438-.7759v1.36l-1.3438.7758v6.9122l-1.58.9121v-6.9121l-1.1781.68Z"/>
    <path d="M210.6957,274.272l1.1917-.688v-2.48l1.58-.9121v2.4795l1.4267-.8238v1.36l-1.4267.8237v4.416c0,.1915.0068.3536.02.4844a.5937.5937,0,0,0,.0972.2954.2355.2355,0,0,0,.2284.084,1.1693,1.1693,0,0,0,.4161-.168q.1662-.0958.3324-.2006a2.6125,2.6125,0,0,0,.3323-.2466v1.4072c-.175.1226-.3459.2417-.5125.3594s-.3374.228-.5125.3291a3.82,3.82,0,0,1-1.0047.4433.7622.7622,0,0,1-.5954-.0566.7341.7341,0,0,1-.2909-.4961,4.7144,4.7144,0,0,1-.09-.86v-4.8789l-1.1917.688Z"/>
    <path d="M314.0161,92.3193V90.9434h-2.48V89.1191h2.48V87.4717h1.36v1.6474h4.416a4.52,4.52,0,0,0,.4961-.0234.867.867,0,0,0,.352-.1123.5332.5332,0,0,0,.2159-.2637,1.2958,1.2958,0,0,0,.0722-.48c0-.128-.0024-.2559-.0083-.3838a1.894,1.894,0,0,0-.0556-.3838h1.4077q.0323.3032.0639.5918a5.312,5.312,0,0,1,.0323.5918,4.025,4.025,0,0,1-.1363,1.16,1.54,1.54,0,0,1-.4.6875,1.3635,1.3635,0,0,1-.664.336,4.9288,4.9288,0,0,1-.9121.1045h-4.88v1.3759Z"/>
    <path d="M322.5122,82.3672a4.5093,4.5093,0,0,1-.3281,1.7676,3.77,3.77,0,0,1-.9038,1.3125,3.8656,3.8656,0,0,1-1.376.8154,5.6167,5.6167,0,0,1-3.5044,0,3.8656,3.8656,0,0,1-1.376-.8154,3.7763,3.7763,0,0,1-.9038-1.3125,4.9254,4.9254,0,0,1,0-3.5352,3.7745,3.7745,0,0,1,.9038-1.3125,3.8823,3.8823,0,0,1,1.376-.8164,5.6358,5.6358,0,0,1,3.5044,0,3.8823,3.8823,0,0,1,1.376.8164,3.7678,3.7678,0,0,1,.9038,1.3125A4.5093,4.5093,0,0,1,322.5122,82.3672Zm-1.44,0a2.09,2.09,0,0,0-.2564-1.0557,2.2251,2.2251,0,0,0-.6719-.7363,2.926,2.926,0,0,0-.936-.4238,4.2052,4.2052,0,0,0-2.12,0,2.8323,2.8323,0,0,0-.936.4238,2.26,2.26,0,0,0-.6636.7363,2.3016,2.3016,0,0,0,0,2.1114,2.26,2.26,0,0,0,.6636.7363,2.8323,2.8323,0,0,0,.936.4238,4.2052,4.2052,0,0,0,2.12,0,2.926,2.926,0,0,0,.936-.4238,2.2251,2.2251,0,0,0,.6719-.7363A2.0873,2.0873,0,0,0,321.0723,82.3672Z"/>
    <path d="M314.0161,76.624V74.8955h1.12v-.0312a2.2589,2.2589,0,0,1-1.0322-1.0723,3.5631,3.5631,0,0,1-.312-1.4883,3.9493,3.9493,0,0,1,.3442-1.7041,3.3652,3.3652,0,0,1,.9439-1.208,4.1139,4.1139,0,0,1,1.4-.72,5.9244,5.9244,0,0,1,1.7119-.24,6.07,6.07,0,0,1,1.6162.2159,4.2155,4.2155,0,0,1,1.3838.6562A3.1993,3.1993,0,0,1,322.5122,72a4.4686,4.4686,0,0,1-.0723.8,3.4459,3.4459,0,0,1-.2319.7676,2.9986,2.9986,0,0,1-.4077.6806,2.2683,2.2683,0,0,1-.584.52V74.8h4.1279V76.624Zm4.1441-6.3681a4.1263,4.1263,0,0,0-1.0879.1435,2.9633,2.9633,0,0,0-.9361.4326,2.2265,2.2265,0,0,0-.6562.72,1.96,1.96,0,0,0-.2481.9921,2.0135,2.0135,0,0,0,.8,1.7364,3.5352,3.5352,0,0,0,2.128.584,4.228,4.228,0,0,0,1.16-.1524,2.6077,2.6077,0,0,0,.92-.456,2.2775,2.2775,0,0,0,.6079-.7276,2.0779,2.0779,0,0,0,.2242-.9844,2.032,2.032,0,0,0-.2564-1.0556,2.2361,2.2361,0,0,0-.664-.7129,2.6953,2.6953,0,0,0-.9278-.3994A4.71,4.71,0,0,0,318.16,70.2559Z"/>
    <path d="M410.82,274.0531c-6.2131,7.7293-14.1579,9.8582-17.7451,4.7548s-1.4584-15.5062,4.7548-23.2355,14.158-9.8582,17.7451-4.7548a8.8486,8.8486,0,0,1,1.2127,2.5558" style="fill:none;stroke:#000;stroke-miterlimit:10"/>
    <polygon points="411.387 252.337 417.038 260.552 421.327 251.55 411.387 252.337"/>
    <path d="M247.5048,274.24c-6.2132-7.7294-8.342-18.1323-4.7548-23.2356s11.532-2.9745,17.7452,4.7548,8.342,18.1323,4.7548,23.2356q-.1656.2357-.3435.4508" style="fill:none;stroke:#000;stroke-miterlimit:10"/>
    <polygon points="264.025 273.61 258.047 281.59 267.947 282.777 264.025 273.61"/>
    <path d="M320.8144,142.0759c-8.7868-2.9289-11.7974-9.4158-6.7243-14.4889s16.3087-6.8112,25.0955-3.8823,11.7974,9.4158,6.7243,14.4889a14.4586,14.4586,0,0,1-3.392,2.4638" style="fill:none;stroke:#000;stroke-miterlimit:10"/>
    <polygon points="342.082 135.288 335.724 142.969 345.555 144.636 342.082 135.288"/>
    <svg x="330" y="221.667" overflow="visible">
        <g transform="matrix(0.707107, 0.408248, -0.353553, 0.911231, 0, 0) scale(1.22474) translate(0 -115)">
            <rect width="115" height="115" style="fill:red;opacity:0.1"/>
            <path d="M44.4355,58.4521a1.3357,1.3357,0,0,0,.3926.4317,1.687,1.687,0,0,0,.5508.248,2.5873,2.5873,0,0,0,.6484.08,2.4335,2.4335,0,0,0,.5039-.0557,1.745,1.745,0,0,0,.48-.1767,1.0863,1.0863,0,0,0,.3594-.3193.845.845,0,0,0,.1445-.504q0-.5125-.68-.7685A13.7327,13.7327,0,0,0,44.94,56.876q-.4952-.1113-.9688-.2647a3.3037,3.3037,0,0,1-.84-.3994,1.9614,1.9614,0,0,1-.5918-.624,1.7774,1.7774,0,0,1-.2227-.92,2.5008,2.5008,0,0,1,.3106-1.3125,2.3052,2.3052,0,0,1,.8242-.8076,3.63,3.63,0,0,1,1.1523-.4161,7.0934,7.0934,0,0,1,1.3125-.12,6.5691,6.5691,0,0,1,1.3028.1279,3.4491,3.4491,0,0,1,1.1289.4327,2.591,2.591,0,0,1,.8242.8076,2.7159,2.7159,0,0,1,.3926,1.2715h-2.16a.9972.9972,0,0,0-.4961-.8877,2.2723,2.2723,0,0,0-1.0566-.2315,3.9994,3.9994,0,0,0-.4161.0235,1.4056,1.4056,0,0,0-.4082.1045.8442.8442,0,0,0-.3125.2314.6846.6846,0,0,0,.0977.9043,1.718,1.718,0,0,0,.584.3115,7.2651,7.2651,0,0,0,.8223.2168q.4657.0953.9453.208a9.5581,9.5581,0,0,1,.9668.2715,3.1718,3.1718,0,0,1,.84.4238,2.0747,2.0747,0,0,1,.5938.6563,1.9358,1.9358,0,0,1,.2226.9678,2.5129,2.5129,0,0,1-1.1836,2.2558,3.4931,3.4931,0,0,1-1.207.4727,7.1317,7.1317,0,0,1-1.3848.1357,6.876,6.876,0,0,1-1.4082-.1435,3.7421,3.7421,0,0,1-1.2246-.48,2.7266,2.7266,0,0,1-.8789-.8877,2.772,2.772,0,0,1-.377-1.3848h2.16A1.2473,1.2473,0,0,0,44.4355,58.4521Z"/>
            <path d="M51.18,50.9561V49.084h2.2715v1.8721Zm2.2715,1.2793v8.2724H51.18V52.2354Z"/>
            <path d="M61.1152,59.4521a2.34,2.34,0,0,1-1.0468.9678,3.4983,3.4983,0,0,1-1.4649.2959,3.5406,3.5406,0,0,1-1.6328-.36,3.2756,3.2756,0,0,1-1.16-.9756,4.4445,4.4445,0,0,1-.6875-1.416A5.96,5.96,0,0,1,54.8906,56.3a5.6038,5.6038,0,0,1,.2324-1.6084,4.1992,4.1992,0,0,1,.6875-1.3672,3.3437,3.3437,0,0,1,2.7442-1.3125,3.2588,3.2588,0,0,1,1.4.3125,2.4375,2.4375,0,0,1,1.0488.92h.0313v-4.16h2.2714V60.5078h-2.16V59.4521ZM61.02,55.3643a2.4085,2.4085,0,0,0-.3281-.8321,1.8536,1.8536,0,0,0-.6-.584,1.76,1.76,0,0,0-.9277-.2246,1.8454,1.8454,0,0,0-.9453.2246,1.77,1.77,0,0,0-.6153.5918,2.6012,2.6012,0,0,0-.3359.84,4.5,4.5,0,0,0-.1035.9844,4.2432,4.2432,0,0,0,.1113.96,2.634,2.634,0,0,0,.3594.8555,1.9858,1.9858,0,0,0,.625.6084,1.6869,1.6869,0,0,0,.9043.2314,1.7985,1.7985,0,0,0,.9355-.2236,1.7032,1.7032,0,0,0,.6-.6,2.6756,2.6756,0,0,0,.32-.8565,5.0089,5.0089,0,0,0,.0957-.9921A4.8855,4.8855,0,0,0,61.02,55.3643Z"/>
            <path d="M67.4512,58.5234a2.33,2.33,0,0,0,2.6562.1524,1.4263,1.4263,0,0,0,.6074-.7276h2a3.7953,3.7953,0,0,1-1.4707,2.128,4.3336,4.3336,0,0,1-2.4.64,4.74,4.74,0,0,1-1.76-.3115,3.6614,3.6614,0,0,1-1.3281-.8887,3.9849,3.9849,0,0,1-.84-1.376,5.039,5.039,0,0,1-.2969-1.76,4.8229,4.8229,0,0,1,.3047-1.7285,3.9952,3.9952,0,0,1,2.1992-2.3037,4.2953,4.2953,0,0,1,1.7208-.336,3.9323,3.9323,0,0,1,1.84.4082,3.67,3.67,0,0,1,1.2891,1.0957,4.4889,4.4889,0,0,1,.7265,1.5684,5.8024,5.8024,0,0,1,.16,1.84H66.8926A2.2877,2.2877,0,0,0,67.4512,58.5234ZM70.02,54.1719a1.5946,1.5946,0,0,0-1.24-.4483,1.9778,1.9778,0,0,0-.9043.1846,1.7336,1.7336,0,0,0-.5762.4561,1.6836,1.6836,0,0,0-.3027.5752,2.56,2.56,0,0,0-.1035.5439h3.6953A2.6388,2.6388,0,0,0,70.02,54.1719Z"/>
        </g>
    </svg>
    <svg x="330" y="221.667" overflow="visible">
        <g transform="matrix(0.965925, -0.149429, 0, 0.816496, 0, 0) scale(1.22474) translate(-115 -115)">
            <rect width="115" height="115" style="fill:lime;opacity:0.1"/>
            <path d="M39.42,53.7559v-1.52h1.3613v-.64a2.4744,2.4744,0,0,1,.6876-1.8076,2.7872,2.7872,0,0,1,2.08-.7041c.2012,0,.4043.0078.6074.0234s.4.03.5918.04v1.6963a6.8943,6.8943,0,0,0-.832-.0479.8737.8737,0,0,0-.664.2158,1.0652,1.0652,0,0,0-.1993.7285v.4952h1.5684v1.52H43.0527v6.7519H40.7812V53.7559Z"/>
            <path d="M47.7734,52.2354v1.5361h.0313a2.7543,2.7543,0,0,1,.4316-.7119,2.8175,2.8175,0,0,1,.625-.56,3.0666,3.0666,0,0,1,.752-.36,2.716,2.716,0,0,1,.832-.1279,1.7657,1.7657,0,0,1,.4961.08v2.1123c-.1074-.0215-.2363-.04-.3848-.0566a4.1414,4.1414,0,0,0-.4316-.0235,2.4273,2.4273,0,0,0-1.0566.208,1.8378,1.8378,0,0,0-.6954.5674,2.2791,2.2791,0,0,0-.3769.8408,4.592,4.592,0,0,0-.1113,1.04v3.7275H45.6133V52.2354Z"/>
            <path d="M51.5957,54.58a3.789,3.789,0,0,1,2.209-2.2559,4.72,4.72,0,0,1,1.76-.3125,4.7833,4.7833,0,0,1,1.7675.3125A3.7737,3.7737,0,0,1,59.5488,54.58a5.1087,5.1087,0,0,1,.3028,1.8,5.0454,5.0454,0,0,1-.3028,1.792,3.9047,3.9047,0,0,1-.8652,1.3681,3.77,3.77,0,0,1-1.3516.8721,4.9057,4.9057,0,0,1-1.7675.3037,4.8407,4.8407,0,0,1-1.76-.3037,3.7723,3.7723,0,0,1-1.3438-.8721,3.8764,3.8764,0,0,1-.8652-1.3681,5.0035,5.0035,0,0,1-.3027-1.792A5.0661,5.0661,0,0,1,51.5957,54.58ZM53.66,57.3477a2.6044,2.6044,0,0,0,.3281.8486,1.7484,1.7484,0,0,0,.6152.6,1.8813,1.8813,0,0,0,.961.2236,1.9184,1.9184,0,0,0,.9667-.2236,1.7275,1.7275,0,0,0,.625-.6,2.6068,2.6068,0,0,0,.3282-.8486A4.81,4.81,0,0,0,57.58,56.38a4.9217,4.9217,0,0,0-.0957-.9756,2.5153,2.5153,0,0,0-.3282-.8486,1.811,1.811,0,0,0-.625-.6,1.8693,1.8693,0,0,0-.9667-.2325,1.7474,1.7474,0,0,0-1.5762.8321,2.5131,2.5131,0,0,0-.3281.8486,4.9142,4.9142,0,0,0-.0957.9756A4.8025,4.8025,0,0,0,53.66,57.3477Z"/>
            <path d="M63.4844,52.2354v1.1523h.0488A2.6022,2.6022,0,0,1,64.6523,52.34a3.2391,3.2391,0,0,1,1.4082-.3281,3.87,3.87,0,0,1,1.4961.2481,2.2275,2.2275,0,0,1,.92.6884,2.668,2.668,0,0,1,.4726,1.0713,6.7321,6.7321,0,0,1,.1348,1.4v5.0879H66.8125V55.8359a2.9042,2.9042,0,0,0-.32-1.5283,1.238,1.238,0,0,0-1.1348-.5039,1.5792,1.5792,0,0,0-1.3457.5518,3.07,3.07,0,0,0-.416,1.8164v4.3359H61.3242V52.2354Z"/>
            <path d="M75.3555,52.2354v1.52H73.6914v4.0957a.7688.7688,0,0,0,.9609.96c.127,0,.25-.0049.3672-.0156a3.1848,3.1848,0,0,0,.336-.0479v1.76a5.349,5.349,0,0,1-.6407.0645c-.2343.01-.4628.0156-.6875.0156a6.6479,6.6479,0,0,1-1-.0723,2.3391,2.3391,0,0,1-.832-.28,1.4758,1.4758,0,0,1-.5683-.5918,2.1129,2.1129,0,0,1-.2071-1.0079v-4.88H70.043v-1.52H71.42v-2.48h2.2715v2.48Z"/>
        </g>
    </svg>
    <svg x="330" y="221.667" overflow="visible">
        <g transform="matrix(0.707107, -0.408248, 0.612372, 0.761802, 0, 0) scale(1.22474) translate(-115 0)">
            <rect width="115" height="115" style="fill:blue;opacity:0.1"/>
            <path d="M50.3164,52.2354v1.52H48.6523v4.0957a.7689.7689,0,0,0,.961.96c.1269,0,.25-.0049.3672-.0156a3.1791,3.1791,0,0,0,.3359-.0479v1.76a5.3494,5.3494,0,0,1-.6406.0645c-.2344.01-.4629.0156-.6875.0156a6.646,6.646,0,0,1-1-.0723,2.34,2.34,0,0,1-.8321-.28,1.4764,1.4764,0,0,1-.5683-.5918,2.113,2.113,0,0,1-.207-1.0079v-4.88h-1.377v-1.52h1.377v-2.48h2.2714v2.48Z"/>
            <path d="M51.4531,54.58A3.7792,3.7792,0,0,1,53.66,52.3242a4.7266,4.7266,0,0,1,1.76-.3125,4.8018,4.8018,0,0,1,1.77.3125A3.7643,3.7643,0,0,1,59.4043,54.58a5.0658,5.0658,0,0,1,.3047,1.8,5.0031,5.0031,0,0,1-.3047,1.792A3.8991,3.8991,0,0,1,58.541,59.54a3.77,3.77,0,0,1-1.3515.8721,4.9247,4.9247,0,0,1-1.77.3037,4.8473,4.8473,0,0,1-1.76-.3037,3.79,3.79,0,0,1-1.3438-.8721,3.8736,3.8736,0,0,1-.8633-1.3681,5.0031,5.0031,0,0,1-.3047-1.792A5.0658,5.0658,0,0,1,51.4531,54.58Zm2.0625,2.7676a2.6068,2.6068,0,0,0,.3282.8486,1.77,1.77,0,0,0,.6171.6,1.8786,1.8786,0,0,0,.959.2236,1.9266,1.9266,0,0,0,.9688-.2236,1.7233,1.7233,0,0,0,.623-.6,2.52,2.52,0,0,0,.3281-.8486,4.803,4.803,0,0,0,.0977-.9678,4.9154,4.9154,0,0,0-.0977-.9756,2.4346,2.4346,0,0,0-.3281-.8486,1.8065,1.8065,0,0,0-.623-.6,1.8773,1.8773,0,0,0-.9688-.2325,1.8308,1.8308,0,0,0-.959.2325,1.8585,1.8585,0,0,0-.6171.6,2.5153,2.5153,0,0,0-.3282.8486,5.0678,5.0678,0,0,0-.0957.9756A4.9515,4.9515,0,0,0,53.5156,57.3477Z"/>
            <path d="M63.3418,52.2354V53.292h.0312a2.4986,2.4986,0,0,1,1.0567-.9766,3.2376,3.2376,0,0,1,1.4062-.3037,3.5918,3.5918,0,0,1,1.6817.3682,3.4822,3.4822,0,0,1,1.1679.9756,4.1645,4.1645,0,0,1,.6875,1.416,6.3272,6.3272,0,0,1,.2247,1.6885,5.7118,5.7118,0,0,1-.2247,1.6,4.1087,4.1087,0,0,1-.68,1.36,3.2968,3.2968,0,0,1-2.7286,1.2959,3.2345,3.2345,0,0,1-1.416-.3115,2.6794,2.6794,0,0,1-1.0644-.9209h-.0313v3.9209H61.1816V52.2354Zm2.9512,6.5605a1.8205,1.8205,0,0,0,.6074-.584,2.4265,2.4265,0,0,0,.3281-.84,4.9316,4.9316,0,0,0,.0957-.9766,4.5358,4.5358,0,0,0-.1035-.9756,2.5785,2.5785,0,0,0-.3437-.8564,1.9239,1.9239,0,0,0-.6153-.6074,1.73,1.73,0,0,0-.92-.2325,1.76,1.76,0,0,0-.9375.2325,1.8653,1.8653,0,0,0-.6074.6,2.5131,2.5131,0,0,0-.3281.8486,5,5,0,0,0-.0958.9912,4.6616,4.6616,0,0,0,.1036.9766,2.5569,2.5569,0,0,0,.3359.84,1.9406,1.9406,0,0,0,2.4805.584Z"/>
        </g>
    </svg>
</svg>